<?xml version="1.0" standalone="no"?>
<!DOCTYPE svg PUBLIC "-//W3C//DTD SVG 1.1//EN" "http://www.w3.org/Graphics/SVG/1.1/DTD/svg11.dtd" >
<!--
2013-9-30: Created.
-->
<svg>
<metadata>
Created by iconfont
</metadata>
<defs>

<font id="iconfont" horiz-adv-x="1024" >
  <font-face
    font-family="iconfont"
    font-weight="500"
    font-stretch="normal"
    units-per-em="1024"
    ascent="896"
    descent="-128"
  />
    <missing-glyph />
    
    <glyph glyph-name="daohang" unicode="&#59038;" d="M381.017263 261.961634c2.559923-1.279962 4.607862-3.3279 5.717162-5.887823l173.477462-370.420887c6.741131-14.506231 27.049855-14.847555 33.193671-0.853308L1018.523471 866.956818a20.735378 20.735378 0 0 1-27.305848 27.305847L10.425714 468.547437c-14.079578-5.973154-13.738255-26.45254 0.853308-33.193671l369.823572-173.562793V261.961634z"  horiz-adv-x="1024" />

    
    <glyph glyph-name="jiantou-xiajiang" unicode="&#59035;" d="M849.314909 157.882182C864.674909 215.04 773.771636 895.627636 47.662545 880.826182c357.003636-29.556364 668.020364-280.064 673.512728-711.307637 68.980364-99.328 121.576727-38.027636 128.139636-11.636363zM788.014545-127.488l188.32291 312.878545h-375.621819z"  horiz-adv-x="1024" />

    
    <glyph glyph-name="jiantou-chiping" unicode="&#59036;" d="M3412.878222 415.857778l-829.781333-479.459556V895.317333zM2595.384889 274.545778L1.365333 415.857778l2594.019556 147.569778z"  horiz-adv-x="3413" />

    
    <glyph glyph-name="jiantou-shangseng" unicode="&#59037;" d="M849.314909 605.975273c15.36-57.902545-75.543273-748.450909-801.652364-733.416728 357.003636 30.021818 668.020364 284.113455 673.512728 721.594182 68.980364 100.817455 121.576727 38.632727 128.139636 11.822546zM788.014545 895.441455l188.32291-317.34691h-375.621819z"  horiz-adv-x="1024" />

    
    <glyph glyph-name="xing-hui" unicode="&#59034;" d="M553.472 14.08c-8.2944 8.704-24.9344 8.704-33.28 8.704-16.64 0-24.9856 0-33.28-8.704l-233.1648-130.9184c-41.6768-26.112-66.6624 0-58.3168 43.6736l41.6256 270.4896c0 26.2144-8.2944 52.3776-24.9856 69.8368l-191.488 192C-12.8 493.9776-4.4032 528.896 45.5168 528.896l258.1504 43.6224c24.9856 0 49.9712 26.1632 58.3168 43.6224L478.5664 860.5696c8.3456 17.408 24.9856 34.8672 33.28 34.8672 8.3456 0 24.9856-8.704 33.3312-34.8672l116.5824-244.3776c8.3456-17.408 33.28-43.6224 58.3168-43.6224l258.0992-43.6224c49.9712-8.704 58.3168-43.6224 24.9856-69.8368l-191.488-192c-16.6912-17.408-24.9856-52.3264-24.9856-69.7856l41.6256-270.4896c8.3456-43.6736-16.64-69.8368-58.3168-43.6736l-216.4736 130.9184zM520.192 22.784c-16.64 0-24.9856 0-33.28-8.704l-233.1648-130.9184c-41.6768-26.112-66.6624 0-58.3168 43.6736l41.6256 270.4896c0 26.2144-8.2944 52.3776-24.9856 69.8368l-191.488 192C-12.8 493.9776-4.4032 528.896 45.5168 528.896l258.1504 43.6224c24.9856 0 49.9712 26.1632 58.3168 43.6224L478.5664 860.5696c8.3456 17.408 24.9856 34.8672 33.28 34.8672"  horiz-adv-x="1024" />

    
    <glyph glyph-name="chakan" unicode="&#59008;" d="M680.106667-62.464c-365.909333 0-649.557333 416.170667-662.784 434.688l-15.872 21.248 15.872 21.162667C30.549333 433.237333 314.282667 849.408 680.106667 849.408c365.824 0 649.386667-416.170667 662.698666-434.773333l15.872-21.162667-15.872-21.248c-10.581333-15.872-296.96-434.688-662.698666-434.688zM99.498667 396.117333c63.658667-84.821333 302.250667-379.050667 580.608-379.050666 278.272 0 516.864 294.229333 580.522666 379.050666-63.658667 84.821333-302.250667 379.050667-580.522666 379.050667-278.357333 0-516.949333-294.229333-580.608-379.050667zM680.106667 144.213333a253.44 253.44 0 0 0-251.904 251.904A253.44 253.44 0 0 0 680.106667 647.936a253.44 253.44 0 0 0 251.733333-251.818667A251.733333 251.733333 0 0 0 680.106667 144.213333z m0 424.192c-95.488 0-172.373333-76.8-172.373334-172.373333 0-95.317333 76.885333-172.202667 172.373334-172.202667 95.402667 0 172.288 76.8 172.288 172.288 0 95.402667-76.885333 172.373333-172.373334 172.373334z"  horiz-adv-x="1365" />

    
    <glyph glyph-name="bofang" unicode="&#59009;" d="M0 383.488C0 101.034667 228.992-128 511.488-128c282.496 0 511.530667 228.992 511.530667 511.488C1023.018667 666.026667 793.984 895.018667 511.488 895.018667 229.034667 895.018667 0 665.984 0 383.488zM383.616 645.632l409.173333-262.144-409.173333-262.144z"  horiz-adv-x="1024" />

    
    <glyph glyph-name="gengduo" unicode="&#59010;" d="M739.693714 340.406857L232.082286 822.857143a40.521143 40.521143 0 0 0 0 58.806857c16.749714 16.822857 41.910857 16.822857 58.660571 0l507.684572-482.523429-58.733715-58.733714zM257.170286-112.786286a40.594286 40.594286 0 0 0 0 58.733715l482.523428 507.684571 62.902857-58.733714-486.692571-503.515429a44.909714 44.909714 0 0 0-58.733714-4.169143z"  horiz-adv-x="1024" />

    
    <glyph glyph-name="gouxuan" unicode="&#59011;" d="M512.256 895.232C230.016 895.232 0.512 665.92 0.512 384s229.504-511.232 511.744-511.232S1024 102.08 1024 384 794.496 895.232 512.256 895.232zM759.36 468.224l-293.952-296.576h-0.576c-2.368-2.304-5.248-3.456-8.192-5.248-1.152-0.576-2.368-1.728-4.096-2.304a37.248 37.248 0 0 0-13.44-2.944 40.32 40.32 0 0 0-14.08 2.944c-1.792 0.576-2.944 1.728-4.096 2.88-2.944 1.792-5.248 2.944-7.68 5.312V172.8H412.8l-144 147.392a36.864 36.864 0 0 0 52.672 51.456l118.272-122.24 267.52 270.208a36.672 36.672 0 0 0 52.096-51.456z"  horiz-adv-x="1024" />

    
    <glyph glyph-name="guanbi" unicode="&#59012;" d="M0.09664 388.8456a506.964265 506.964265 0 1 1 1013.865151 0A506.964265 506.964265 0 0 1 0.09664 388.908978zM565.305705 388.338572l186.269281 186.332659a36.252476 36.252476 0 0 1-51.209792 51.083035L514.159292 439.548364l-186.269281 186.332659a36.252476 36.252476 0 0 1-51.146413-51.146413l186.205902-186.269281-186.205902-186.332659a36.252476 36.252476 0 0 1 51.336549-51.146413l186.205902 186.205902 186.205902-186.205902a36.569369 36.569369 0 0 1 51.336549 0 36.252476 36.252476 0 0 1 0 51.146413L565.305705 388.338572z"  horiz-adv-x="1024" />

    
    <glyph glyph-name="dingwei" unicode="&#59014;" d="M460.833032-99.889548c0-9.282065 24.146581-16.846452 54.007742-16.846452s54.073806 7.564387 54.073807 16.912516c0 9.282065-24.179613 16.813419-54.073807 16.813419-29.861161 0-54.007742-7.531355-54.007742-16.846451v-0.033032zM499.447742-100.715355h29.894193c1.915871 0 3.567484 3.303226 3.567484 7.201032V400.582194c0 4.096-1.651613 7.201032-3.567484 7.201032H499.447742c-1.915871 0-3.567484-3.270194-3.567484-7.201032v-494.096517c0-4.062968 1.651613-7.201032 3.567484-7.201032zM248.600774 629.991226c0.099097-146.861419 118.189419-265.843613 263.861678-265.909678 119.246452 0.264258 223.562323 81.094194 254.414451 197.202581 30.885161 116.075355-19.323871 238.625032-122.45058 298.941936a261.978839 261.978839 0 0 1-263.927742 0.132129A266.24 266.24 0 0 1 248.633806 630.024258v-0.033032zM347.697548 697.740387c0-36.467613 29.629935-66.031484 66.130581-66.064516a66.130581 66.130581 0 0 1 33.032258 123.276387A66.130581 66.130581 0 0 1 347.730581 697.806452z"  horiz-adv-x="1024" />

    
    <glyph glyph-name="shaixuan-didaogao" unicode="&#59015;" d="M512-127.317333l255.829333 427.434666H256.170667zM512 895.317333L256.170667 467.882667h511.658666z"  horiz-adv-x="1024" />

    
    <glyph glyph-name="kecheng" unicode="&#59016;" d="M0 384c0-282.766222 229.233778-512 512-512s512 229.233778 512 512S794.766222 896 512 896 0 666.766222 0 384zM569.6 530.403556h142.392889v-320.796445a64.199111 64.199111 0 0 0-64-64H376.035556a64.199111 64.199111 0 0 0-64 64V558.364444a64.199111 64.199111 0 0 0 64 64H711.964444v-30.407111H373.589333c-16.782222 0-31.203556-13.596444-31.203555-30.378666 0-16.782222 13.624889-30.407111 31.203555-30.407111h64.796445v-215.210667l65.621333 55.210667 64.796445-55.182223v214.385778h0.796444z"  horiz-adv-x="1024" />

    
    <glyph glyph-name="gonggao" unicode="&#59017;" d="M899.413333-102.115556a56.718222 56.718222 0 0 0-40.106666 96.824889c220.16 220.16 220.16 578.275556 0 798.378667a56.888889 56.888889 0 0 0 0 80.213333 56.604444 56.604444 0 0 0 80.213333 0c264.362667-264.248889 264.362667-694.385778 0-958.691555a55.978667 55.978667 0 0 0-40.106667-16.725334zM712.817778 80.440889a56.718222 56.718222 0 0 0-40.106667 96.824889c119.466667 119.466667 119.466667 313.856 0 433.265778a56.718222 56.718222 0 0 0 80.213333 80.213333c163.669333-163.612444 163.669333-429.909333 0-593.578667a55.637333 55.637333 0 0 0-40.106666-16.725333zM212.878222 242.346667c0-34.019556-27.306667-56.490667-60.643555-50.119111l-91.591111 17.749333C27.306667 216.519111 0 249.514667 0 283.534222V544.426667c0 34.019556 27.306667 67.015111 60.700444 73.614222l91.534223 17.635555c33.393778 6.485333 60.643556-15.928889 60.643555-50.005333v-343.267555z m362.837334-274.716445c0-34.019556-21.447111-44.202667-47.843556-22.584889l-231.708444 189.496889c-26.282667 21.504-47.843556 66.901333-47.843556 100.977778V592.384c0 34.019556 21.447111 79.473778 47.843556 100.920889L527.985778 883.143111c26.282667 21.560889 47.843556 11.264 47.843555-22.641778l-0.113777-892.814222z"  horiz-adv-x="1137" />

    
    <glyph glyph-name="gouxuan-hui" unicode="&#59018;" d="M512.256 895.232C230.016 895.232 0.512 665.92 0.512 384s229.504-511.232 511.744-511.232S1024 102.08 1024 384 794.496 895.232 512.256 895.232zM759.36 468.224l-293.952-296.576h-0.576c-2.368-2.304-5.248-3.456-8.192-5.248-1.152-0.576-2.368-1.728-4.096-2.304a37.248 37.248 0 0 0-13.44-2.944 40.32 40.32 0 0 0-14.08 2.944c-1.792 0.576-2.944 1.728-4.096 2.88-2.944 1.792-5.248 2.944-7.68 5.312V172.8H412.8l-144 147.392a36.864 36.864 0 0 0 52.672 51.456l118.272-122.24 267.52 270.208a36.672 36.672 0 0 0 52.096-51.456z"  horiz-adv-x="1024" />

    
    <glyph glyph-name="shoucang-hui" unicode="&#59019;" d="M1040.457143 319.049143c-128.219429-165.302857-399.433143-354.742857-412.525714-363.885714-13.165714-9.069714-28.013714-13.677714-42.788572-13.677715-14.774857 0-29.549714 4.608-42.715428 13.677715-13.165714 9.069714-279.405714 200.118857-412.525715 371.419428-42.788571 62.171429-111.835429 139.483429-111.835428 248.685714 0 183.442286 111.762286 313.782857 292.571428 313.782858 101.888 0 212.114286-89.453714 272.822857-166.765715 62.464 77.312 171.008 166.765714 272.822858 166.765715 182.491429 0 300.836571-128.877714 300.836571-313.782858 1.682286-109.202286-73.947429-195.584-116.662857-256.219428z"  horiz-adv-x="1170" />

    
    <glyph glyph-name="quan" unicode="&#59020;" d="M0 384c0-282.766222 229.233778-512 512-512s512 229.233778 512 512S794.766222 896 512 896 0 666.766222 0 384zM743.992889 431.985778c16.014222 9.614222 16.014222 19.2 16.014222 32v80.014222c0 25.6-20.821333 46.392889-46.421333 46.392889H310.385778c-25.6 0-46.364444-20.792889-46.364445-46.392889v-80.014222c0-12.8 1.592889-23.978667 17.578667-33.564445 11.207111-4.835556 36.807111-19.228444 36.807111-48.014222 0-32-19.2-41.614222-35.214222-46.392889H281.6c-16.014222-9.614222-17.607111-25.6-17.607111-32v-80.014222c0-25.6 20.792889-46.392889 46.392889-46.392889h401.635555c25.6 0 46.364444 20.792889 46.364445 46.392889v80.014222c0 17.578667-4.778667 23.978667-17.578667 33.564445-27.221333 14.421333-36.807111 25.6-36.807111 48.014222 3.214222 20.821333 11.207111 30.407111 39.992889 46.392889z m-145.578667-41.585778c0-7.992889-6.428444-12.8-12.8-12.8H532.764444v-12.8h52.792889c8.021333 0 12.8-6.4 12.8-12.8v-12.8c0-7.992889-6.371556-12.8-12.8-12.8h-52.792889v-39.992889c0-7.992889-6.4-12.8-12.8-12.8h-12.8a12.629333 12.629333 0 0 0-12.8 12.8v39.992889h-52.792888a12.629333 12.629333 0 0 0-12.8 12.8v12.8c0 7.992889 6.4 12.8 12.8 12.8h52.792888v12.8h-52.792888a12.629333 12.629333 0 0 0-12.8 12.8v12.8c0 7.992889 6.4 12.8 12.8 12.8h35.185777l-44.8 48.014222c-4.778667 4.778667-4.778667 12.8 0 19.2l8.021334 9.585778c4.778667 4.807111 14.392889 4.807111 19.2 0l56.007111-60.785778 55.978666 60.785778c4.807111 4.807111 14.392889 4.807111 19.2 0l8.021334-9.585778c4.778667-4.835556 4.778667-12.8 0-19.2l-44.828445-48.014222H588.8c7.992889 0 12.8-6.4 12.8-12.8l-3.185778-12.8z"  horiz-adv-x="1024" />

    
    <glyph glyph-name="shaixuan" unicode="&#59021;" d="M512-127.317333l255.829333 427.434666H256.170667zM512 895.317333L256.170667 467.882667h511.658666z"  horiz-adv-x="1024" />

    
    <glyph glyph-name="shoucang" unicode="&#59022;" d="M512 384m-352 0a352 352 0 1 1 704 0 352 352 0 1 1-704 0ZM512 480m-352 0a352 352 0 1 1 704 0 352 352 0 1 1-704 0ZM633.6 452.064c-34.304-47.792-106.832-102.624-110.336-105.248-3.52-2.64-7.472-3.952-11.44-3.952-3.952 0-7.904 1.312-11.424 3.952-3.52 2.624-74.72 57.888-110.336 107.44-11.424 17.984-29.888 40.352-29.888 71.936 0 53.072 29.888 90.784 78.24 90.784 27.264 0 56.704-25.872 72.96-48.24 16.72 22.368 45.728 48.24 72.976 48.24 48.8 0 80.448-37.28 80.448-90.784 0.432-31.584-19.776-56.576-31.2-74.128z"  horiz-adv-x="1024" />

    
    <glyph glyph-name="sousuo" unicode="&#59023;" d="M1005.229574-23.723014l-280.34751 280.461287a396.855566 396.855566 0 0 1 76.799744 236.429434A404.592429 404.592429 0 0 1 399.364927 895.939698 397.652008 397.652008 0 0 1 0.006258 496.069031a404.649318 404.649318 0 0 1 402.203104-402.82888 395.604015 395.604015 0 0 1 237.112098 77.653075l0.284444 0.227555 280.119955-280.290622a60.472687 60.472687 0 1 1 85.446826 85.503715zM401.981807 173.510106A323.696699 323.696699 0 0 0 80.219324 495.727699 318.178495 318.178495 0 0 0 399.64937 815.783521a323.696699 323.696699 0 0 0 321.819372-322.274482A318.178495 318.178495 0 0 0 401.981807 173.510106z"  horiz-adv-x="1024" />

    
    <glyph glyph-name="shaixuan-gaodaodi" unicode="&#59024;" d="M512-127.317333l255.829333 427.434666H256.170667zM512 895.317333L256.170667 467.882667h511.658666z"  horiz-adv-x="1024" />

    
    <glyph glyph-name="shoucang1" unicode="&#59025;" d="M1040.457143 319.049143c-128.219429-165.302857-399.433143-354.742857-412.525714-363.885714-13.165714-9.069714-28.013714-13.677714-42.788572-13.677715-14.774857 0-29.549714 4.608-42.715428 13.677715-13.165714 9.069714-279.405714 200.118857-412.525715 371.419428-42.788571 62.171429-111.835429 139.483429-111.835428 248.685714 0 183.442286 111.762286 313.782857 292.571428 313.782858 101.888 0 212.114286-89.453714 272.822857-166.765715 62.464 77.312 171.008 166.765714 272.822858 166.765715 182.491429 0 300.836571-128.877714 300.836571-313.782858 1.682286-109.202286-73.947429-195.584-116.662857-256.219428z"  horiz-adv-x="1170" />

    
    <glyph glyph-name="shoucang-hui1" unicode="&#59026;" d="M512 384m-352 0a352 352 0 1 1 704 0 352 352 0 1 1-704 0ZM512 480m-352 0a352 352 0 1 1 704 0 352 352 0 1 1-704 0ZM633.6 452.064c-34.304-47.792-106.832-102.624-110.336-105.248-3.52-2.64-7.472-3.952-11.44-3.952-3.952 0-7.904 1.312-11.424 3.952-3.52 2.624-74.72 57.888-110.336 107.44-11.424 17.984-29.888 40.352-29.888 71.936 0 53.072 29.888 90.784 78.24 90.784 27.264 0 56.704-25.872 72.96-48.24 16.72 22.368 45.728 48.24 72.976 48.24 48.8 0 80.448-37.28 80.448-90.784 0.432-31.584-19.776-56.576-31.2-74.128z"  horiz-adv-x="1024" />

    
    <glyph glyph-name="tianjiatupian" unicode="&#59027;" d="M937.704727-128H86.551273C38.923636-128 0-89.134545 0-41.541818V808.552727C0 856.122182 38.923636 895.010909 86.551273 895.010909h850.629818c47.639273 0 86.551273-38.888727 86.551273-86.458182v-849.594182c0.512-48.081455-38.4-86.958545-86.027637-86.958545zM756.922182 408.052364h-227.374546V635.159273h-34.839272v-227.106909H266.821818v-35.293091h227.886546v-227.607273h34.827636v227.607273h227.386182z"  horiz-adv-x="1024" />

    
    <glyph glyph-name="xiala" unicode="&#59028;" d="M471.301998 372.519189L956.734225 883.268075a40.771597 40.771597 0 0 0 59.170332 0c16.926836-16.853241 16.926836-42.169901 0-59.023142l-485.505822-510.822481-59.096737 59.096737zM15.307748 858.025011a40.845192 40.845192 0 0 0 59.096737 0l510.822481-485.505822-59.096737-63.291648-506.62757 489.700733a45.187293 45.187293 0 0 0-4.194911 59.096737z"  horiz-adv-x="1030" />

    
    <glyph glyph-name="xing-banke" unicode="&#59029;" d="M553.472 14.08c-8.2944 8.704-24.9344 8.704-33.28 8.704-16.64 0-24.9856 0-33.28-8.704l-233.1648-130.9184c-41.6768-26.112-66.6624 0-58.3168 43.6736l41.6256 270.4896c0 26.2144-8.2944 52.3776-24.9856 69.8368l-191.488 192C-12.8 493.9776-4.4032 528.896 45.5168 528.896l258.1504 43.6224c24.9856 0 49.9712 26.1632 58.3168 43.6224L478.5664 860.5696c8.3456 17.408 24.9856 34.8672 33.28 34.8672 8.3456 0 24.9856-8.704 33.3312-34.8672l116.5824-244.3776c8.3456-17.408 33.28-43.6224 58.3168-43.6224l258.0992-43.6224c49.9712-8.704 58.3168-43.6224 24.9856-69.8368l-191.488-192c-16.6912-17.408-24.9856-52.3264-24.9856-69.7856l41.6256-270.4896c8.3456-43.6736-16.64-69.8368-58.3168-43.6736l-216.4736 130.9184zM520.192 22.784c-16.64 0-24.9856 0-33.28-8.704l-233.1648-130.9184c-41.6768-26.112-66.6624 0-58.3168 43.6736l41.6256 270.4896c0 26.2144-8.2944 52.3776-24.9856 69.8368l-191.488 192C-12.8 493.9776-4.4032 528.896 45.5168 528.896l258.1504 43.6224c24.9856 0 49.9712 26.1632 58.3168 43.6224L478.5664 860.5696c8.3456 17.408 24.9856 34.8672 33.28 34.8672"  horiz-adv-x="1024" />

    
    <glyph glyph-name="xuanze-fanbai" unicode="&#59030;" d="M605.610667-98.730667a98.986667 98.986667 0 0 0-62.122667 21.162667L64.341333 312.405333a69.546667 69.546667 0 0 0-27.733333 53.418667 69.205333 69.205333 0 0 0 24.832 54.784c17.92 15.36 41.045333 23.893333 65.109333 23.552 22.357333 0 44.714667-6.997333 62.293334-21.077333l409.002666-333.056 742.144 766.293333c18.176 18.176 43.264 28.245333 69.461334 27.989333 20.224 0 40.362667-5.632 57.088-17.408 38.4-26.88 43.861333-75.093333 12.373333-107.690666l-803.669333-829.866667a96.341333 96.341333 0 0 0-69.461334-28.16h-0.170666z"  horiz-adv-x="1536" />

    
    <glyph glyph-name="xing" unicode="&#59031;" d="M553.472 14.08c-8.2944 8.704-24.9344 8.704-33.28 8.704-16.64 0-24.9856 0-33.28-8.704l-233.1648-130.9184c-41.6768-26.112-66.6624 0-58.3168 43.6736l41.6256 270.4896c0 26.2144-8.2944 52.3776-24.9856 69.8368l-191.488 192C-12.8 493.9776-4.4032 528.896 45.5168 528.896l258.1504 43.6224c24.9856 0 49.9712 26.1632 58.3168 43.6224L478.5664 860.5696c8.3456 17.408 24.9856 34.8672 33.28 34.8672 8.3456 0 24.9856-8.704 33.3312-34.8672l116.5824-244.3776c8.3456-17.408 33.28-43.6224 58.3168-43.6224l258.0992-43.6224c49.9712-8.704 58.3168-43.6224 24.9856-69.8368l-191.488-192c-16.6912-17.408-24.9856-52.3264-24.9856-69.7856l41.6256-270.4896c8.3456-43.6736-16.64-69.8368-58.3168-43.6736l-216.4736 130.9184zM520.192 22.784c-16.64 0-24.9856 0-33.28-8.704l-233.1648-130.9184c-41.6768-26.112-66.6624 0-58.3168 43.6736l41.6256 270.4896c0 26.2144-8.2944 52.3776-24.9856 69.8368l-191.488 192C-12.8 493.9776-4.4032 528.896 45.5168 528.896l258.1504 43.6224c24.9856 0 49.9712 26.1632 58.3168 43.6224L478.5664 860.5696c8.3456 17.408 24.9856 34.8672 33.28 34.8672"  horiz-adv-x="1024" />

    
    <glyph glyph-name="xuanze" unicode="&#59032;" d="M605.610667-98.730667a98.986667 98.986667 0 0 0-62.122667 21.162667L64.341333 312.405333a69.546667 69.546667 0 0 0-27.733333 53.418667 69.205333 69.205333 0 0 0 24.832 54.784c17.92 15.36 41.045333 23.893333 65.109333 23.552 22.357333 0 44.714667-6.997333 62.293334-21.077333l409.002666-333.056 742.144 766.293333c18.176 18.176 43.264 28.245333 69.461334 27.989333 20.224 0 40.362667-5.632 57.088-17.408 38.4-26.88 43.861333-75.093333 12.373333-107.690666l-803.669333-829.866667a96.341333 96.341333 0 0 0-69.461334-28.16h-0.170666z"  horiz-adv-x="1536" />

    
    <glyph glyph-name="zixun" unicode="&#59033;" d="M0 384c0-282.766222 229.233778-512 512-512s512 229.233778 512 512S794.766222 896 512 896 0 666.766222 0 384zM364.373333 402.289778c-23.751111 0-43.064889 25.713778-43.064889 57.457778 0 28.814222 15.928889 52.679111 36.664889 56.860444 19.541333 50.545778 72.903111 86.812444 135.736889 86.812444s116.224-36.266667 135.765334-86.812444c20.736-4.181333 36.636444-28.046222 36.636444-56.888889 0-31.715556-19.313778-57.457778-43.093333-57.457778h-14.364445v71.850667c0 54.869333-50.830222 100.579556-114.915555 100.579556-64.142222 0-114.972444-45.710222-114.972445-100.579556v-71.822222h-14.364444z m-70.997333-229.888a116.138667 116.138667 0 0 0-0.796444 14.364444c0 63.232 39.708444 118.499556 98.872888 148.48a171.804444 171.804444 0 0 1 102.257778-33.536 171.633778 171.633778 0 0 1 102.257778 33.564445c59.164444-29.980444 98.901333-85.276444 98.901333-148.48 0-5.290667-0.284444-10.069333-0.824889-14.392889H293.376z m200.334222 172.458666a100.579556 100.579556 0 1 0 0 201.159112 100.579556 100.579556 0 0 0 0-201.159112z"  horiz-adv-x="1024" />

    


  </font>
</defs>
</svg>
