<?xml version="1.0" encoding="UTF-8"?>
<svg width="36px" height="36px" viewBox="0 0 36 36" version="1.1" xmlns="http://www.w3.org/2000/svg" xmlns:xlink="http://www.w3.org/1999/xlink">
    <!-- Generator: Sketch 52 (66869) - http://www.bohemiancoding.com/sketch -->
    <title>yishengdenglu copy 3</title>
    <desc>Created with Sketch.</desc>
    <g id="AD患者之家5.0" stroke="none" stroke-width="1" fill="none" fill-rule="evenodd">
        <g id="附近医院-医院详情" transform="translate(-16.000000, -365.000000)" fill="#009966" fill-rule="nonzero">
            <g id="yishengdenglu-copy-3" transform="translate(16.000000, 365.000000)">
                <path d="M18.0097062,0.0262303697 C8.07553172,0.0262303697 0.0223241338,8.07047002 0.0223241338,17.9935819 C0.0223241338,27.9166939 8.07553172,35.9609745 18.0097062,35.9609745 C27.9438806,35.9609745 35.9971292,27.9166938 35.9971292,17.9935819 C35.9971292,8.07047006 27.9438806,0.0262303697 18.0097062,0.0262303697 Z M18.0097062,34.4227196 C8.92603264,34.4227196 1.56225279,27.0670989 1.56225279,17.9935819 C1.56225279,8.92002388 8.92603264,1.56444422 18.0097062,1.56444422 C27.0933797,1.56444422 34.4571595,8.92002388 34.4571595,17.9935819 C34.4572006,27.06714 27.0933797,34.4227197 18.0097062,34.4227196 Z" id="形状"></path>
                <path d="M11.5370446,15.0553622 C11.8400528,15.0553622 12.1643758,14.8532809 12.1643758,14.5499948 L12.1643758,11.1139149 C12.1643758,9.54735386 15.3314229,8.70858922 18.5690268,8.70858918 C21.6551677,8.70858918 24.8221738,9.49718221 24.8221738,11.1139149 L24.8221738,14.5499948 C24.8221738,14.8532809 25.1458808,15.0553622 25.4494639,15.0553622 C25.7531292,15.0553622 26.0767951,14.8532809 26.0767951,14.5499948 L26.0767951,11.1139149 C26.0767951,10.1791144 25.9958478,9.2692972 23.5973276,8.33453776 C22.2824168,7.82917036 20.4412049,7.40461907 18.5689858,7.40461907 C14.8251225,7.40461907 10.9096724,8.63749563 10.9096723,11.0634561 L10.9096723,14.499577 C10.9097134,14.802822 11.2839354,15.0553621 11.5370446,15.0553622 M18.5185529,16.6729563 C18.822752,16.6729563 19.145843,16.4705467 19.145843,16.1675889 L19.145843,13.9133114 L21.4026336,13.9133114 C21.7062578,13.9133114 21.9076609,13.590252 21.9076609,13.2866788 C21.9076609,12.9833927 21.7062578,12.6600462 21.4026336,12.6600462 L19.145843,12.6600462 L19.145843,10.4063841 C19.145843,10.103098 18.822752,9.9010167 18.5185529,9.9010167 C18.2148876,9.9010167 17.8906056,10.103098 17.8906056,10.4063841 L17.8906056,12.6600462 L15.6350471,12.6600462 C15.3314229,12.6600462 15.1294038,12.9833927 15.1294038,13.2866788 C15.1294038,13.590252 15.3314229,13.9133114 15.6350471,13.9133114 L17.8906056,13.9133114 L17.8906056,16.1675889 C17.8906056,16.4195136 18.2148876,16.6729563 18.5185529,16.6729563 M28.4546986,28.346332 C27.2402429,25.1627512 24.3871694,23.2421581 20.5423171,22.7365036 C23.2238037,21.8776785 25.3180837,19.3511697 25.3180837,16.369342 C25.3180837,16.0660559 24.9938018,15.8639746 24.6907936,15.8639746 C24.3871694,15.8639746 24.0628875,16.0660559 24.0628875,16.369342 C24.0628875,19.502505 21.6552088,21.7871398 18.5185939,21.7871398 C15.381938,21.7871398 12.9742593,19.5025051 12.9742593,16.369342 C12.9742593,16.0660559 12.6499774,15.8639746 12.3463121,15.8639746 C12.043304,15.8639746 11.7189809,16.0660559 11.7189809,16.369342 C11.7189809,19.3511286 13.813918,21.8776785 16.4947886,22.7365036 C12.6499363,23.2421582 9.79686277,25.1627922 8.58236605,28.346332 C8.48137702,28.5985439 8.75395292,28.7802776 9.00706206,28.8818106 C9.06854256,28.90183 9.23039607,28.9322283 9.3313851,28.9322284 C9.53402027,28.9322284 9.73599833,28.9522888 9.7871294,28.7499203 C11.4056233,24.5556047 15.381938,23.8895076 18.5690679,23.8895076 C21.7062988,23.8895076 25.5608845,24.5057613 27.2298935,28.7499203 C27.3308825,29.0027476 27.8699972,29.0616982 28.0950972,28.9480223 C28.2976912,28.8569093 28.5556876,28.5985849 28.4546986,28.346332" id="形状"></path>
            </g>
        </g>
    </g>
</svg>