<?xml version="1.0" encoding="UTF-8"?>
<svg width="44px" height="44px" viewBox="0 0 44 44" version="1.1" xmlns="http://www.w3.org/2000/svg" xmlns:xlink="http://www.w3.org/1999/xlink">
    <!-- Generator: Sketch 52 (66869) - http://www.bohemiancoding.com/sketch -->
    <title>fenxiang</title>
    <desc>Created with Sketch.</desc>
    <defs>
        <linearGradient x1="50%" y1="0%" x2="50%" y2="97.1007948%" id="linearGradient-1">
            <stop stop-color="#6BE8E4" offset="0%"></stop>
            <stop stop-color="#18B8B0" offset="100%"></stop>
        </linearGradient>
    </defs>
    <g id="AD患者之家4.0" stroke="none" stroke-width="1" fill="none" fill-rule="evenodd">
        <g id="疾病知识详情页" transform="translate(-315.000000, -503.000000)" fill-rule="nonzero">
            <g id="fenxiang" transform="translate(315.000000, 503.000000)">
                <path d="M22,0 C9.8497355,-7.43989126e-16 1.48797825e-15,9.8497355 0,22 C-1.48797825e-15,34.1502645 9.8497355,44 22,44 C34.1502645,44 44,34.1502645 44,22 C44,9.8497355 34.1502645,5.62897043e-15 22,0 Z" id="形状" fill="url(#linearGradient-1)"></path>
                <path d="M33.2429388,22.8243794 C30.1857146,25.088626 27.144331,27.3554931 24.0712662,29.5647058 C23.6782666,29.8535765 23.1771144,29.9561363 22.7010595,29.845116 C22.363128,29.6826354 22.1360803,29.0431954 22.0885586,28.5898219 C21.9987956,27.6175587 22.0621577,26.6295715 22.0621578,25.5551026 C17.6004057,25.1803489 13.5980293,26.0084761 10.303197,29.1794694 C8.47889481,25.5917918 15.2005639,19.5223532 22.0621578,18.39023 C22.0621578,17.3262438 21.9987956,16.3015674 22.0938388,15.2978563 C22.1360723,14.8153109 22.3743648,14.3706188 22.7538613,14.0661481 C23.0284307,13.9010468 23.6673325,14.0661481 24.0105441,14.3282137 C27.1179301,16.5924602 30.1883547,18.8567067 33.2746199,21.1209532 C34.0455262,21.7341867 34.0032848,22.2530765 33.2429388,22.8243794 Z" id="形状" fill="#FFFFFF"></path>
            </g>
        </g>
    </g>
</svg>