<?xml version="1.0" standalone="no"?><!DOCTYPE svg PUBLIC "-//W3C//DTD SVG 1.1//EN" "http://www.w3.org/Graphics/SVG/1.1/DTD/svg11.dtd"><svg t="1586261258478" class="icon" viewBox="0 0 1024 1024" version="1.1" xmlns="http://www.w3.org/2000/svg" p-id="1933" xmlns:xlink="http://www.w3.org/1999/xlink" width="32" height="32"><defs><style type="text/css"></style></defs><path d="M0.4096 499.9168c0 275.8656 223.6416 499.5072 499.5072 499.5072s499.5072-223.6416 499.5072-499.5072S775.7824 0.4096 499.9168 0.4096 0.4096 224.0512 0.4096 499.9168z" fill="#FF755A" p-id="1934"></path><path d="M687.2576 757.8624a46.2848 46.2848 0 0 1-33.0752-13.7728L279.4496 369.5616a46.848 46.848 0 1 1 66.2528-66.2528l374.6304 374.6304a46.848 46.848 0 0 1-33.0752 79.9232z" fill="#FFFFFF" p-id="1935"></path><path d="M312.6272 757.8624a46.848 46.848 0 0 1-33.0752-80.0256l374.6304-374.6304a46.848 46.848 0 1 1 66.304 66.2528l-374.784 374.784a47.0016 47.0016 0 0 1-33.0752 13.6192z" fill="#FFFFFF" p-id="1936"></path></svg>