<?xml version="1.0" encoding="UTF-8"?>
<svg width="16px" height="14px" viewBox="0 0 16 14" version="1.1" xmlns="http://www.w3.org/2000/svg" xmlns:xlink="http://www.w3.org/1999/xlink">
    <!-- Generator: Sketch 52 (66869) - http://www.bohemiancoding.com/sketch -->
    <title>shoucang3-copy</title>
    <desc>Created with Sketch.</desc>
    <g id="AD患者之家4.0" stroke="none" stroke-width="1" >
        <g id="用药说明" transform="translate(-117.000000, -263.000000)" >
            <g id="分组-2-copy-11" transform="translate(117.000000, 260.000000)">
                <g id="分组">
                    <g id="分组-5">
                        <g id="shoucang3-copy" transform="translate(0.000000, 3.000000)">
                            <path d="M14.2247536,7.88841712 C12.4719349,10.1476941 8.76404918,12.738608 8.5842729,12.8629719 C8.40449663,12.9873358 8.20224831,13.0495177 8,13.0495177 C7.79775169,13.0495177 7.59550337,12.9873358 7.4157271,12.8629719 C7.23595082,12.738608 3.59548118,10.1269668 1.77524636,7.78478056 C1.19097346,6.93496079 0.247147994,5.87786789 0.247147994,4.38550146 C0.247147994,1.87749675 1.77524636,0.0949479572 4.24717019,0.0949479572 C5.64043635,0.0949479572 7.14606268,1.31785934 7.97752797,2.37495223 C8.83146529,1.31785934 10.3146196,0.0949479572 11.7078857,0.0949479572 C14.2022816,0.0949479572 15.8202681,1.85676944 15.8202681,4.38550146 C15.8427401,5.87786789 14.8090265,7.05932466 14.2247536,7.88841712 Z" id="路径"></path>
                        </g>
                    </g>
                </g>
            </g>
        </g>
    </g>
</svg>