<?xml version="1.0" standalone="no"?><!DOCTYPE svg PUBLIC "-//W3C//DTD SVG 1.1//EN" "http://www.w3.org/Graphics/SVG/1.1/DTD/svg11.dtd"><svg t="1586165849601" class="icon" viewBox="0 0 1024 1024" version="1.1" xmlns="http://www.w3.org/2000/svg" p-id="2999" xmlns:xlink="http://www.w3.org/1999/xlink" width="32" height="32"><defs><style type="text/css"></style></defs><path d="M872.990118 26.262588a20.178824 20.178824 0 0 0-11.324236-2.349176c-11.239906 0.891482-19.877647 10.480941-19.178917 21.347388 7.288471 119.555012-21.142588 243.266259-78.089036 339.606588-27.804612 47.164235-58.368 88.425412-89.943341 122.458353-0.602353-30.394729-5.818729-59.259482-15.9744-85.485929-22.708706-58.9824-67.114165-98.749741-128.228894-114.736188-72.511247-19.010259-159.575341 23.009882-202.631529 97.918494-40.731106 70.872847-27.262494 145.805553 35.84 200.41487 45.634259 39.610729 97.255906 54.874353 153.3952 45.477647 33.105318-5.541647 67.547859-20.383624 101.641035-43.056188-10.721882 33.936565-27.154071 68.1984-48.730353 100.689318-143.119059 215.389365-471.232753 272.914071-474.533647 273.552564-11.155576 1.879341-18.877741 12.119341-17.155012 22.889412 1.722729 10.782118 12.131388 18.058541 23.299012 16.167153 14.191435-2.337129 349.605647-61.247247 502.747859-291.695435 34.394353-51.802353 56.609129-107.821176 65.65647-161.912471 46.332988-41.803294 90.834824-97.316141 129.963671-163.478588 60.885835-102.845741 91.352847-234.857412 83.510212-361.869553a18.986165 18.986165 0 0 0-10.264094-15.950306z m-450.078118 571.367906a169.5744 169.5744 0 0 1-31.864471-22.142494c-69.270588-59.946165-42.489976-126.108612-27.804611-151.744753 33.322165-58.090918 101.628988-92.400941 155.407058-78.378165 48.248471 12.661459 83.196988 44.080188 101.25553 90.883012 12.842165 33.3824 16.504471 71.920941 11.516988 112.254494-40.803388 34.550965-82.160941 56.560941-121.012706 63.030212-30.72 5.360941-60.018447 0.662588-87.497788-13.902306z" fill="#FFFFFF" p-id="3000"></path><path d="M872.628706 11.733835a21.455812 21.455812 0 0 0-6.409035-2.120282 21.130541 21.130541 0 0 0-15.420236 3.614118L753.182118 81.317647c-9.228047 6.396988-11.565176 18.853647-5.011577 27.732329 6.5536 8.890729 19.239153 10.842353 28.55153 4.312848l80.667105-56.247718 57.199436 79.968376c6.360847 8.938918 19.106635 11.083294 28.527435 4.614024 9.360565-6.336753 11.818165-18.721129 5.336847-27.73233l-68.848941-96.316235a22.082259 22.082259 0 0 0-6.9632-5.927153z" fill="#FFFFFF" p-id="3001"></path></svg>