<?xml version="1.0" encoding="UTF-8"?>
<svg width="40px" height="40px" viewBox="0 0 40 40" version="1.1" xmlns="http://www.w3.org/2000/svg" xmlns:xlink="http://www.w3.org/1999/xlink">
    <!-- Generator: Sketch 63 (92445) - https://sketch.com -->
    <title>jiancha</title>
    <desc>Created with Sketch.</desc>
    <g id="AD患者之家5.0" stroke="none" stroke-width="1" fill="none" fill-rule="evenodd">
        <g id="疾病评估" transform="translate(-130.000000, -252.000000)" fill-rule="nonzero">
            <g id="编组-2" transform="translate(16.000000, 232.000000)">
                <g id="jiancha" transform="translate(114.000000, 20.000000)">
                    <path d="M0,20 C0,31.045695 8.954305,40 20,40 C31.045695,40 40,31.045695 40,20 C40,8.954305 31.045695,0 20,0 C8.954305,0 0,8.954305 0,20 Z" id="路径" fill="#FFFFFF"></path>
                    <path d="M30.925,30 L30.5583333,30 L30.5583333,29.6333333 L28.0583333,27.1333333 C27.4920211,27.5470341 26.8096507,27.7715748 26.1083333,27.775 C24.2673842,27.775 22.775,26.2826158 22.775,24.4416667 C22.775,22.6007175 24.2673842,21.1083334 26.1083334,21.1083334 C27.9492825,21.1083334 29.4416667,22.6007175 29.4416667,24.4416667 C29.443474,25.14772 29.2153031,25.8351578 28.7916667,26.4 L31.2916667,28.9 L31.6666667,28.9 L31.6666667,30 L30.925,30 Z M26.1083333,22.225 C24.9293737,22.2655882 23.9870042,23.2192422 23.960452,24.3986015 C23.9338998,25.5779607 24.8323949,26.5730602 26.0083333,26.6666667 L26.1083333,26.6666667 C27.2821105,26.5947317 28.1972294,25.6218127 28.1972294,24.4458333 C28.1972294,23.269854 27.2821105,22.296935 26.1083333,22.225 L26.1083333,22.225 Z M21.6666667,24.4416667 C21.6666667,26.8947314 23.6552686,28.8833333 26.1083333,28.8833333 L26.1083333,30 L12.775,30 C12.1615389,29.9954218 11.6666667,29.4968115 11.6666667,28.8833333 L11.6666667,11.1083333 C11.6712039,10.498107 12.1647737,10.0045372 12.775,10 L23.8916667,10 L23.8916667,15.5583333 L29.4416667,15.5583333 L29.4416667,21.5333333 C28.608211,20.5594085 27.390198,19.9991225 26.1083333,20 C23.6552686,20 21.6666667,21.9886019 21.6666667,24.4416667 L21.6666667,24.4416667 Z M13.8916667,24.4416667 L20.5583333,24.4416667 L20.5583333,22.225 L13.8916667,22.225 L13.8916667,24.4416667 Z M27.225,16.6666667 L13.8916667,16.6666667 L13.8916667,18.8916667 L27.225,18.8916667 L27.225,16.6666667 Z M25,10 L26.1083333,10 L29.4416667,13.3333333 L29.4416667,14.4416667 L25,14.4416667 L25,10 Z" id="形状" fill="#009966"></path>
                </g>
            </g>
        </g>
    </g>
</svg>