<?xml version="1.0" encoding="UTF-8"?>
<svg width="36px" height="36px" viewBox="0 0 36 36" version="1.1" xmlns="http://www.w3.org/2000/svg" xmlns:xlink="http://www.w3.org/1999/xlink">
    <!-- Generator: Sketch 52 (66869) - http://www.bohemiancoding.com/sketch -->
    <title>kechengxiaoshou</title>
    <desc>Created with Sketch.</desc>
    <g id="AD患者之家5.0" stroke="none" stroke-width="1" fill="none" fill-rule="evenodd">
        <g id="我的兑换" transform="translate(-16.000000, -212.000000)">
            <g id="kechengxiaoshou" transform="translate(16.000000, 212.000000)">
                <path d="M0,18 C1.21743675e-15,27.9411255 8.0588745,36 18,36 C27.9411255,36 36,27.9411255 36,18 C36,8.0588745 27.9411255,6.08718376e-16 18,0 C8.0588745,-6.08718376e-16 1.21743675e-15,8.0588745 0,18 Z" id="路径" fill="#8880FE"></path>
                <path d="M20.025,12.853125 L25.03125,12.853125 L25.03125,24.13125 C25.03125,25.36875 24.01875,26.38125 22.78125,26.38125 L13.21875,26.38125 C11.98125,26.38125 10.96875,25.36875 10.96875,24.13125 L10.96875,11.86875 C10.96875,10.63125 11.98125,9.61875 13.21875,9.61875 L25.03125,9.61875 L25.03125,10.6875 L13.134375,10.6875 C12.54375,10.6875 12.0375,11.165625 12.0375,11.75625 C12.0375,12.346875 12.515625,12.825 13.134375,12.825 L15.4125,12.825 L15.4125,20.390625 L17.71875,18.45 L19.996875,20.390625 L19.996875,12.853125 L20.025,12.853125 Z" id="路径" fill="#FFFFFF"></path>
            </g>
        </g>
    </g>
</svg>