<?xml version="1.0" standalone="no"?><!DOCTYPE svg PUBLIC "-//W3C//DTD SVG 1.1//EN" "http://www.w3.org/Graphics/SVG/1.1/DTD/svg11.dtd"><svg t="1584282311676" class="icon" viewBox="0 0 1024 1024" version="1.1" xmlns="http://www.w3.org/2000/svg" p-id="1611" xmlns:xlink="http://www.w3.org/1999/xlink" width="32" height="32"><defs><style type="text/css"></style></defs><path d="M512 512m-352 0a352 352 0 1 0 704 0 352 352 0 1 0-704 0Z" fill="#C8C8C8" opacity=".3" p-id="1612"></path><path d="M512 416m-352 0a352 352 0 1 0 704 0 352 352 0 1 0-704 0Z" fill="#FFFFFF" opacity=".9" p-id="1613"></path><path d="M633.6 443.936c-34.304 47.792-106.832 102.624-110.336 105.248-3.52 2.64-7.472 3.952-11.44 3.952-3.952 0-7.904-1.312-11.424-3.952-3.52-2.624-74.72-57.888-110.336-107.44-11.424-17.984-29.888-40.352-29.888-71.936 0-53.072 29.888-90.784 78.24-90.784 27.264 0 56.704 25.872 72.96 48.24 16.72-22.368 45.728-48.24 72.976-48.24 48.8 0 80.448 37.28 80.448 90.784 0.432 31.584-19.776 56.576-31.2 74.128z" fill="#FF755A" p-id="1614"></path></svg>