<?xml version="1.0" encoding="UTF-8"?>
<svg width="24px" height="24px" viewBox="0 0 24 24" version="1.1" xmlns="http://www.w3.org/2000/svg" xmlns:xlink="http://www.w3.org/1999/xlink">
    <!-- Generator: Sketch 52 (66869) - http://www.bohemiancoding.com/sketch -->
    <title>lishiyidianji</title>
    <desc>Created with Sketch.</desc>
    <g id="AD患者之家5.0" stroke="none" stroke-width="1" fill="none" fill-rule="evenodd">
        <g id="积分兑换" transform="translate(-34.000000, -92.000000)">
            <g id="wodiduihuan" transform="translate(34.000000, 92.000000)">
                <g id="lishiyidianji">
                    <path d="M0,11.7818182 C1.63505573e-15,18.2887367 5.27489967,23.5636364 11.7818182,23.5636364 C18.2887367,23.5636364 23.5636364,18.2887367 23.5636364,11.7818182 C23.5636364,5.27489967 18.2887367,3.63345717e-16 11.7818182,0 C5.27489967,-3.63345717e-16 1.63505573e-15,5.27489967 0,11.7818182 Z" id="路径" fill="#1699FF"></path>
                    <path d="M12,18.5454545 C8.37482519,18.5454545 5.45454545,15.6251748 5.45454545,12 C5.45454545,8.37482517 8.37482517,5.45454545 12,5.45454545 C15.6251748,5.45454545 18.5454545,8.37482517 18.5454545,12 C18.5454545,15.6251748 15.6251748,18.5454545 12,18.5454545 Z M12.5538462,12.3272727 L12.5538462,9.28111889 C12.5538462,8.979021 12.3020979,8.72727274 12,8.72727274 C11.6979021,8.72727274 11.4461538,8.979021 11.4461538,9.28111889 L11.4461538,12.5538462 C11.4461538,12.7048951 11.4965035,12.8307692 11.5972028,12.9314685 L13.158042,14.4923077 C13.3594406,14.6937063 13.7118881,14.6937063 13.9132867,14.4923077 C14.1146853,14.2909091 14.1146853,13.9384615 13.9132867,13.7370629 L12.5538462,12.3272727 Z" id="形状" fill="#FFFFFF" fill-rule="nonzero"></path>
                </g>
            </g>
        </g>
    </g>
</svg>