<?xml version="1.0" encoding="UTF-8"?>
<svg width="22px" height="34px" viewBox="0 0 22 34" version="1.1" xmlns="http://www.w3.org/2000/svg" xmlns:xlink="http://www.w3.org/1999/xlink">
    <!-- Generator: Sketch 52 (66869) - http://www.bohemiancoding.com/sketch -->
    <title>dingwei-3 copy 2</title>
    <desc>Created with Sketch.</desc>
    <g id="AD患者之家5.0" stroke="none" stroke-width="1" fill="none" fill-rule="evenodd">
        <g id="医院地图-我的位置-允许定位" transform="translate(-20.000000, -283.000000)">
            <g id="dingwei-3-copy-2" transform="translate(20.000000, 283.000000)">
                <path d="M5.41052047,31.6694958 C5.41052044,32.2636068 6.47629391,32.8125879 8.20637433,33.1096434 C9.93645474,33.4066989 12.0680017,33.4066989 13.7980821,33.1096434 C15.5281626,32.8125879 16.593936,32.2636068 16.593936,31.6694958 C16.593936,30.7510799 14.0904432,30.0065567 11.0022282,30.0065567 C7.91401331,30.0065567 5.41052047,30.7510799 5.41052047,31.6694958 Z" id="路径" fill="#D3D3D3"></path>
                <path d="M10.7001987,30.9808696 C8.60605323,26.5849608 6.49793348,23.3668841 4.80504945,20.7836389 C3.64518432,19.0128981 2.64502523,17.4857091 1.92035907,16.0084282 C1.63273103,15.4637738 1.39422452,14.8945649 1.20767089,14.3075589 L1.13779948,14.0799778 C1.0156751,13.6896213 0.917013467,13.2923082 0.842343323,12.8901678 C0.728629551,12.3127589 0.669808495,11.7258852 0.666666667,11.137394 C0.666666667,5.3640206 5.3640206,0.666666667 11.137394,0.666666667 C16.9107674,0.666666667 21.6081213,5.3640206 21.6081213,11.137394 C21.6081213,11.8241299 21.5422425,12.4849137 21.4064924,13.1516864 L21.3525916,13.3632969 C21.1636653,14.1561427 20.8920063,14.9269582 20.5420835,15.6630639 C19.8713181,17.0984219 18.9290525,18.5357763 17.7352498,20.3564252 C16.0363768,22.949652 13.9222681,26.1757141 11.5725929,30.9848622 C11.4913468,31.151376 11.322669,31.2573799 11.137394,31.2583588 L11.1353977,31.2563625 C10.9493929,31.2559679 10.7801344,31.1488226 10.7001987,30.9808696 Z" id="路径" fill="#F2A900"></path>
                <path d="M10.9543164,0.990177469 C13.6028299,0.989647822 16.1430192,2.04153113 18.0158011,3.91431301 C19.888583,5.78709489 20.9404663,8.32728421 20.9399366,10.9757977 C20.9399366,11.6505557 20.8720616,12.2833909 20.7462931,12.8922702 C20.7243335,13.0060607 20.6883996,13.111866 20.6624474,13.2236602 C20.5666238,13.61494 20.4448479,14.0022271 20.3031088,14.3835253 C20.1916649,14.6913345 20.0643959,14.9931818 19.9218106,15.2878608 C18.3127723,18.7355149 14.9469674,22.4307135 10.9543164,30.6076628 C7.43279819,23.2132731 3.94521753,19.2465743 2.17248047,15.6312288 C1.89456094,15.109523 1.66470083,14.5636053 1.4857445,14.0002308 L1.41986575,13.7846277 C1.30240371,13.4122425 1.2083922,13.0328627 1.13838388,12.6487184 C1.02895929,12.0977119 0.972141352,11.537554 0.968696188,10.9757977 C0.969798299,5.4613485 5.43986722,0.99127958 10.9543164,0.990177469 Z M10.9543164,0.0219595937 C4.90741518,0.0285610116 0.00707973037,4.92889646 0.0004783125,10.9757977 C0.0004783125,11.5627174 0.0603680625,12.167604 0.186136594,12.8283878 C0.258004313,13.2595941 0.375787531,13.6728334 0.489578063,14.0601206 L0.56743475,14.3116576 C0.763074656,14.9205369 1.016608,15.5254235 1.31605684,16.0883873 C2.040723,17.5656682 3.04886738,19.1068315 4.21871413,20.8915465 C5.90361284,23.4628138 7.99975466,26.6629236 10.0799258,31.0268911 C10.2396319,31.3622738 10.5790072,31.577877 10.9503237,31.5798733 L10.9543164,31.5798733 C11.324242,31.579608 11.6618254,31.3690055 11.8247143,31.0368728 C14.1604152,26.2536768 16.2665386,23.0415891 17.9594226,20.4603402 C19.1632069,18.6237207 20.1134578,17.1743884 20.8001938,15.7011002 C20.9519146,15.3876771 21.0876647,15.0602797 21.2134332,14.718908 C21.3691466,14.301676 21.5029004,13.8744623 21.604713,13.455234 L21.6346579,13.3394471 C21.6586138,13.2536051 21.6805734,13.1677631 21.6985403,13.0799248 C21.8402794,12.3911924 21.9101508,11.7004638 21.9101508,10.9757977 C21.9035474,4.92811797 17.0019972,0.0274608874 10.9543164,0.0219595937 Z" id="形状" fill="#F2A900" fill-rule="nonzero"></path>
            </g>
        </g>
    </g>
</svg>