<?xml version="1.0" encoding="UTF-8"?>
<svg width="20px" height="18px" viewBox="0 0 20 18" version="1.1" xmlns="http://www.w3.org/2000/svg" xmlns:xlink="http://www.w3.org/1999/xlink">
    <!-- Generator: Sketch 52 (66869) - http://www.bohemiancoding.com/sketch -->
    <title>公告</title>
    <desc>Created with Sketch.</desc>
    <defs>
        <polygon id="path-1" points="0.00167364017 0.0277357716 20 0.0277357716 20 17.5452999 0.00167364017 17.5452999"></polygon>
    </defs>
    <g id="AD患者之家5.0" stroke="none" stroke-width="1" fill="none" fill-rule="evenodd">
        <g id="留言板" transform="translate(-32.000000, -95.000000)">
            <g id="分组-20" transform="translate(32.000000, 95.000000)">
                <g id="公告">
                    <g transform="translate(0.000000, 0.000000)">
                        <mask id="mask-2" fill="white">
                            <use xlink:href="#path-1"></use>
                        </mask>
                        <g id="Clip-2"></g>
                        <path d="M15.8103487,17.5452999 C15.5559275,17.5452999 15.2993026,17.447113 15.1051604,17.2529707 C14.7169317,16.864742 14.7169317,16.2331939 15.1051604,15.8426778 C18.9745607,11.9732497 18.9745607,5.678159 15.1051604,1.80861925 C14.7169317,1.42039052 14.7169317,0.788842399 15.1051604,0.39832636 C15.4956764,0.00781032078 16.1271967,0.00781032078 16.5154254,0.39832636 C21.1615342,5.04432357 21.1615342,12.6047978 16.5154254,17.2507671 C16.3190795,17.4494282 16.0647699,17.5452999 15.8103487,17.5452999 Z" id="Fill-1" fill="#009966" mask="url(#mask-2)"></path>
                        <path d="M12.5299582,14.3364017 C12.275537,14.3364017 12.01894,14.2382148 11.8248815,14.0440446 C11.4365411,13.6535286 11.4365411,13.0220084 11.8248815,12.6337796 C13.9246583,10.5338912 13.9246583,7.11740586 11.8248815,5.01762901 C11.4365411,4.6292887 11.4365411,3.99774059 11.8248815,3.60722455 C12.2153975,3.21899582 12.846834,3.21670851 13.2351464,3.60722455 C16.1116318,6.48368201 16.1116318,11.1654114 13.2351464,14.0418689 C13.0410042,14.2404184 12.7865551,14.3364017 12.5299582,14.3364017 Z M3.74225941,11.4890377 C3.74225941,12.0870014 3.26251046,12.4819805 2.67564854,12.3704045 L1.06661088,12.0580195 C0.479748954,11.9441562 0,11.3640446 0,10.7659693 L0,6.18025105 C0,5.58214784 0.479748954,5.00192469 1.06661088,4.88588563 L2.67564854,4.57567643 C3.26251046,4.46192469 3.74225941,4.85690377 3.74225941,5.45500697 L3.74225941,11.4890377 Z M10.1199721,16.3179637 C10.1199721,16.9160391 9.74284519,17.0945328 9.27868898,16.7152301 L5.20616457,13.3835425 C4.74415621,13.0064156 4.36485356,12.2075314 4.36485356,11.6094282 L4.36485356,5.33665272 C4.36485356,4.73868898 4.74198047,3.93977685 5.20616457,3.56267782 L9.28086471,0.226499303 C9.74284519,-0.152887029 10.1221478,0.0277357716 10.1221478,0.623654114 L10.1199721,16.3179637 Z" id="Fill-3" fill="#009966" mask="url(#mask-2)"></path>
                    </g>
                </g>
            </g>
        </g>
    </g>
</svg>