<?xml version="1.0" encoding="UTF-8"?>
<svg width="40px" height="40px" viewBox="0 0 40 40" version="1.1" xmlns="http://www.w3.org/2000/svg" xmlns:xlink="http://www.w3.org/1999/xlink">
    <!-- Generator: Sketch 63 (92445) - https://sketch.com -->
    <title>ruxueceshifeiyong</title>
    <desc>Created with Sketch.</desc>
    <g id="AD患者之家5.0" stroke="none" stroke-width="1" fill="none" fill-rule="evenodd">
        <g id="疾病评估" transform="translate(-309.000000, -252.000000)" fill-rule="nonzero">
            <g id="编组" transform="translate(195.000000, 232.000000)">
                <g id="ruxueceshifeiyong" transform="translate(114.000000, 20.000000)">
                    <path d="M0,20 C0,31.045695 8.954305,40 20,40 C31.045695,40 40,31.045695 40,20 C40,8.954305 31.045695,0 20,0 C8.954305,0 0,8.954305 0,20 Z" id="路径" fill="#FFFFFF"></path>
                    <path d="M29.4484615,23.2638462 C29.2323077,22.9392308 28.9615384,22.56 28.6361538,22.2892308 C28.3115384,22.0184616 27.9861538,21.7476923 27.6076923,21.4769231 L28.2569231,20.8269231 C28.2569231,20.8269231 29.1776923,20.8269231 29.6646154,21.26 C30.0984615,21.7476923 30.0984615,22.6138462 30.0984615,22.6138462 L29.4484615,23.2638462 M23.7084615,28.8415385 L21.7584615,28.8415385 L21.7584615,26.9461538 L21.9753846,26.73 C22.4084615,26.9461538 22.7876923,27.1630769 23.1123077,27.4876923 C23.4376923,27.8130769 23.7084615,28.1923077 23.9246154,28.5707692 L23.7084615,28.8415385 M28.9069231,23.7515385 L24.5207692,28.0838462 C24.2950567,27.6921158 24.0015176,27.3436195 23.6538462,27.0546154 C23.3301388,26.7373654 22.9659673,26.4642367 22.5707692,26.2423077 L27.0661538,22.0184615 C27.4992307,22.1807692 27.8238461,22.4515384 28.1492308,22.7769231 C28.4738462,22.9930769 28.7446154,23.3723077 28.9069231,23.7515385 M19.8092308,27 C19.8092308,26.7830769 21.3253846,25.4292308 23.0584615,23.9130769 L14.9353846,23.9130769 C14.5023077,23.9130769 14.3938461,23.7507692 14.3938462,23.3715385 C14.3938462,22.9923077 14.5015385,22.83 14.9353846,22.83 L23.8707692,22.7761538 C24.0330769,22.7761538 24.1415384,22.83 24.25,22.8838462 C25.7661538,21.53 27.2284615,19.5269231 27.8784615,18.9307692 L27.8784615,12.4869231 C27.9323077,11.62 27.1738461,10.9161538 26.3076923,10.9161538 L13.3107692,10.9161538 C12.39,10.9161538 11.6861538,11.62 11.6861538,12.4869231 L11.6861538,27.8123077 C11.6861538,28.6246154 12.39,29.3284615 13.3107692,29.3284615 L19.8092308,29.3284615 L19.8092308,27 M14.3938462,15.79 C14.3938462,15.4653846 14.5015385,15.2484615 14.9353846,15.2484615 L24.6830769,15.2484615 C25.1161538,15.2484615 25.2246154,15.4653846 25.2246154,15.79 C25.2246154,16.1146154 25.1169231,16.3315385 24.6830769,16.3315385 L14.9353846,16.3315385 C14.5023077,16.3315385 14.3938462,16.1146154 14.3938462,15.79 M14.3938462,19.5807692 C14.3938462,19.31 14.5015385,19.0392308 14.9353846,19.0392308 L24.6830769,19.0392308 C25.1161538,19.0392308 25.2246154,19.31 25.2246154,19.5807692 C25.2246154,19.8515384 25.1169231,20.1223077 24.6830769,20.1223077 L14.9353846,20.1223077 C14.5023077,20.1223077 14.3938462,19.8515385 14.3938462,19.5807692" id="形状" fill="#F2A900"></path>
                </g>
            </g>
        </g>
    </g>
</svg>