<?xml version="1.0" encoding="UTF-8"?>
<svg width="36px" height="36px" viewBox="0 0 36 36" version="1.1" xmlns="http://www.w3.org/2000/svg" xmlns:xlink="http://www.w3.org/1999/xlink">
    <!-- Generator: Sketch 52 (66869) - http://www.bohemiancoding.com/sketch -->
    <title>quan</title>
    <desc>Created with Sketch.</desc>
    <g id="AD患者之家5.0" stroke="none" stroke-width="1" fill="none" fill-rule="evenodd">
        <g id="我的兑换" transform="translate(-16.000000, -84.000000)">
            <g id="quan" transform="translate(16.000000, 84.000000)">
                <path d="M0,18 C1.21743675e-15,27.9411255 8.0588745,36 18,36 C27.9411255,36 36,27.9411255 36,18 C36,8.0588745 27.9411255,6.08718376e-16 18,0 C8.0588745,-6.08718376e-16 1.21743675e-15,8.0588745 0,18 Z" id="路径" fill="#FF7575"></path>
                <path d="M26.15625,16.3125 C26.71875,15.975 26.71875,15.6375 26.71875,15.1875 L26.71875,12.375 C26.71875,11.475 25.9875,10.74375 25.0875,10.74375 L10.9125,10.74375 C10.0125,10.74375 9.28125,11.475 9.28125,12.375 L9.28125,15.1875 C9.28125,15.6375 9.3375,16.03125 9.9,16.36875 C10.29375,16.5375 11.19375,17.04375 11.19375,18.05625 C11.19375,19.18125 10.51875,19.51875 9.95625,19.6875 L9.9,19.6875 C9.3375,20.025 9.28125,20.5875 9.28125,20.8125 L9.28125,23.625 C9.28125,24.525 10.0125,25.25625 10.9125,25.25625 L25.03125,25.25625 C25.93125,25.25625 26.6625,24.525 26.6625,23.625 L26.6625,20.8125 C26.6625,20.19375 26.49375,19.96875 26.04375,19.63125 C25.0875,19.125 24.75,18.73125 24.75,17.94375 C24.8625,17.2125 25.14375,16.875 26.15625,16.3125 Z M21.0375,17.775 C21.0375,18.05625 20.8125,18.225 20.5875,18.225 L18.73125,18.225 L18.73125,18.675 L20.5875,18.675 C20.86875,18.675 21.0375,18.9 21.0375,19.125 L21.0375,19.575 C21.0375,19.85625 20.8125,20.025 20.5875,20.025 L18.73125,20.025 L18.73125,21.43125 C18.73125,21.7125 18.50625,21.88125 18.28125,21.88125 L17.83125,21.88125 C17.55,21.88125 17.38125,21.65625 17.38125,21.43125 L17.38125,20.025 L15.525,20.025 C15.24375,20.025 15.075,19.8 15.075,19.575 L15.075,19.125 C15.075,18.84375 15.3,18.675 15.525,18.675 L17.38125,18.675 L17.38125,18.225 L15.525,18.225 C15.24375,18.225 15.075,18 15.075,17.775 L15.075,17.325 C15.075,17.04375 15.3,16.875 15.525,16.875 L16.7625,16.875 L15.1875,15.1875 C15.01875,15.01875 15.01875,14.7375 15.1875,14.5125 L15.46875,14.175 C15.6375,14.00625 15.975,14.00625 16.14375,14.175 L18.1125,16.3125 L20.08125,14.175 C20.25,14.00625 20.5875,14.00625 20.75625,14.175 L21.0375,14.5125 C21.20625,14.68125 21.20625,14.9625 21.0375,15.1875 L19.4625,16.875 L20.7,16.875 C20.98125,16.875 21.15,17.1 21.15,17.325 L21.0375,17.775 Z" id="形状" fill="#FFFFFF" fill-rule="nonzero"></path>
            </g>
        </g>
    </g>
</svg>