<?xml version="1.0" encoding="UTF-8"?>
<svg width="20px" height="20px" viewBox="0 0 20 20" version="1.1" xmlns="http://www.w3.org/2000/svg" xmlns:xlink="http://www.w3.org/1999/xlink">
    <!-- Generator: Sketch 52 (66869) - http://www.bohemiancoding.com/sketch -->
    <title>cha-3</title>
    <desc>Created with Sketch.</desc>
    <defs>
        <polygon id="path-1" points="0.00187793427 0.00375586854 19.9962128 0.00375586854 19.9962128 19.9999765 0.00187793427 19.9999765"></polygon>
    </defs>
    <g id="AD患者之家5.0" stroke="none" stroke-width="1" fill="none" fill-rule="evenodd">
        <g id="注册成功-弹窗" transform="translate(-178.000000, -443.000000)">
            <g id="分组-11" transform="translate(77.000000, 231.000000)">
                <g id="cha-3" transform="translate(101.000000, 212.000000)">
                    <g id="分组">
                        <mask id="mask-2" fill="white">
                            <use xlink:href="#path-1"></use>
                        </mask>
                        <g id="Clip-2"></g>
                        <path d="M0,10.0019092 C0,13.5738967 1.9056964,16.8744914 4.99902973,18.6604695 C8.09248826,20.4464789 11.9037246,20.4464789 14.9971831,18.6604695 C18.0906416,16.8744914 19.9962128,13.5738967 19.9962128,10.0019092 C19.9962128,4.4801252 15.5199687,0.00375586854 9.99815336,0.00375586854 C4.47636933,0.00375586854 0,4.4801252 0,10.0019092 Z" id="Fill-1" fill="#CCCCCC" mask="url(#mask-2)"></path>
                    </g>
                    <path d="M11.1474178,10.0119562 L14.8206573,6.33859155 C15.098529,6.06071987 15.098529,5.60748044 14.8206573,5.32957746 C14.5427543,5.05167449 14.0895149,5.05167449 13.8116119,5.32957746 L10.1384038,9.0028169 L6.46507042,5.32701095 C6.18716745,5.04910798 5.73392801,5.04910798 5.45602504,5.32701095 C5.17812207,5.60503912 5.17812207,6.05824726 5.45602504,6.33615023 L9.12926448,10.0093897 L5.45602504,13.6851643 C5.17812207,13.9630673 5.17812207,14.4162754 5.45602504,14.6941784 C5.59627543,14.8344288 5.77906103,14.9020344 5.96181534,14.9020344 C6.14460094,14.9020344 6.32738654,14.8319875 6.46763693,14.6941784 L10.1408451,11.0209703 L13.8140532,14.6941784 C13.9543036,14.8344288 14.1370892,14.9020344 14.3198748,14.9020344 C14.5026291,14.9020344 14.6854147,14.8319875 14.8256651,14.6941784 C15.1035681,14.4162754 15.1035681,13.9630673 14.8256651,13.6851643 L11.1474178,10.0119562 Z" id="Fill-3" fill="#000000" opacity="0.598656064"></path>
                </g>
            </g>
        </g>
    </g>
</svg>