<?xml version="1.0" standalone="no"?><!DOCTYPE svg PUBLIC "-//W3C//DTD SVG 1.1//EN" "http://www.w3.org/Graphics/SVG/1.1/DTD/svg11.dtd"><svg t="1584180322185" class="icon" viewBox="0 0 1024 1024" version="1.1" xmlns="http://www.w3.org/2000/svg" p-id="1905" xmlns:xlink="http://www.w3.org/1999/xlink" width="32" height="32"><defs><style type="text/css"></style></defs><path d="M1005.229574 919.723014l-280.34751-280.461287a396.855566 396.855566 0 0 0 76.799744-236.429434A404.592429 404.592429 0 0 0 399.364927 0.060302 397.652008 397.652008 0 0 0 0.006258 399.930969a404.649318 404.649318 0 0 0 402.203104 402.82888 395.604015 395.604015 0 0 0 237.112098-77.653075l0.284444-0.227555 280.119955 280.290622a60.472687 60.472687 0 1 0 85.446826-85.503715zM401.981807 722.489894A323.696699 323.696699 0 0 1 80.219324 400.272301 318.178495 318.178495 0 0 1 399.64937 80.216479a323.696699 323.696699 0 0 1 321.819372 322.274482A318.178495 318.178495 0 0 1 401.981807 722.489894z" fill="#8E8E93" p-id="1906"></path></svg>