<?xml version="1.0" encoding="UTF-8"?>
<svg width="44px" height="44px" viewBox="0 0 44 44" version="1.1" xmlns="http://www.w3.org/2000/svg" xmlns:xlink="http://www.w3.org/1999/xlink">
    <!-- Generator: Sketch 63 (92445) - https://sketch.com -->
    <title>tijiaochenggong的副本</title>
    <desc>Created with Sketch.</desc>
    <g id="AD患者之家5.0" stroke="none" stroke-width="1" fill="none" fill-rule="evenodd">
        <g id="特应性皮炎患者需求调研提交成功" transform="translate(-162.000000, -164.000000)" fill-rule="nonzero">
            <g id="tijiaochenggong的副本" transform="translate(162.000000, 164.000000)">
                <path d="M22.0484127,10.908622 C12.9435597,10.908622 5.53534363,18.2326538 5.53534363,27.2340426 C5.53534363,36.2367117 12.9422646,43.5594631 22.0484127,43.5594631 C31.1545608,43.5594631 38.5614818,36.2367117 38.5614818,27.2340426 C38.5614818,18.2326538 31.1545608,10.908622 22.0484127,10.908622 Z" id="路径" fill="#CEE2B5"></path>
                <path d="M21.951277,0.0250082785 C9.86435803,0.0250082785 0.0309872693,9.74727638 0.0309872693,21.6962038 C0.0309872693,33.6457715 9.86306288,43.3667591 21.951277,43.3667591 C34.038196,43.3667591 43.8709192,33.6457715 43.8709192,21.6955636 C43.8709192,9.74727638 34.038196,0.0250082785 21.9506295,0.0250082785 L21.951277,0.0250082785 Z" id="路径" fill="#009966"></path>
                <path d="M32.5144606,16.2793653 L19.922436,28.8640238 C19.9191982,28.8665846 19.9127224,28.8685053 19.9094846,28.8729867 C19.9049516,28.8761878 19.9049516,28.88259 19.9004186,28.885791 C19.7993974,28.9818229 19.6750638,29.0413627 19.5591485,29.1066643 C19.5008671,29.1386749 19.4535944,29.1886115 19.3920751,29.2122994 C19.0127807,29.3647509 18.5880541,29.3636011 18.2096098,29.2090983 C18.1467954,29.1828496 18.0962848,29.129712 18.0367083,29.0970611 C17.9201454,29.0317595 17.7990496,28.9741403 17.6986761,28.8761878 C17.6954382,28.8729867 17.6934955,28.8672248 17.6902576,28.8633835 C17.6876673,28.858902 17.6811916,28.858902 17.6779538,28.8544205 L11.4845815,22.5624115 C11.0928976,22.1640853 10.9459138,21.5894303 11.0989974,21.0549136 C11.2520811,20.5203969 11.6819753,20.1072242 12.2267429,19.9710337 C12.7715106,19.8348432 13.3483886,19.9963255 13.7400725,20.3946517 L18.815089,25.5502835 L30.2790444,14.0917589 C30.5720242,13.7981714 30.9710842,13.6318401 31.3882385,13.6294117 C31.8053929,13.6270362 32.2063854,13.7887608 32.5028043,14.0789546 C33.1179971,14.6839555 33.1244728,15.6679622 32.5138131,16.2793653 L32.5144606,16.2793653 Z" id="路径" fill="#FFFFFF"></path>
            </g>
        </g>
    </g>
</svg>