<?xml version="1.0" encoding="UTF-8"?>
<svg width="43px" height="16px" viewBox="0 0 43 16" version="1.1" xmlns="http://www.w3.org/2000/svg" xmlns:xlink="http://www.w3.org/1999/xlink">
    <!-- Generator: Sketch 52 (66869) - http://www.bohemiancoding.com/sketch -->
    <title>分组 7 copy 2</title>
    <desc>Created with Sketch.</desc>
    <defs>
        <linearGradient x1="98.1055816%" y1="51.8944184%" x2="29.886556%" y2="51.8944184%" id="linearGradient-1">
            <stop stop-color="#32D19D" offset="0%"></stop>
            <stop stop-color="#009966" offset="100%"></stop>
        </linearGradient>
    </defs>
    <g id="AD患者之家5.0" stroke="none" stroke-width="1" fill="none" fill-rule="evenodd">
        <g id="医院地图-我的位置-允许定位" transform="translate(-132.000000, -402.000000)">
            <g id="分组-4" transform="translate(16.000000, 400.000000)">
                <g id="分组-7-copy-2" transform="translate(116.000000, 2.000000)">
                    <path d="M14.5,4 L38.5,4 C40.9852814,4 43,6.01471863 43,8.5 L43,8.5 C43,10.9852814 40.9852814,13 38.5,13 L14.5,13 C12.0147186,13 10,10.9852814 10,8.5 L10,8.5 C10,6.01471863 12.0147186,4 14.5,4 Z M28.6318143,5.2457327 C28.0915718,5.24357208 27.560343,5.38414566 27.0918774,5.65323028 C26.6326027,5.9154757 26.2690085,6.21377135 26.0010536,6.54929211 C25.8230184,6.75724163 25.6769661,6.99056132 25.5677086,7.24156393 C25.4753673,7.44976489 25.3537776,7.80548535 25.2074948,8.31095137 L25.1421962,8.53607472 L24.9710967,9.15298937 C24.7819618,9.86216296 24.6727805,10.3506448 24.6457376,10.616353 C24.6299584,10.7452066 24.6276925,10.8753567 24.6389769,11.0046815 C24.654745,11.1038042 24.6750478,11.2084715 24.6975148,11.3176528 C24.7819618,11.6530705 24.9835051,11.9480065 25.302021,12.203553 C25.6104784,12.4692612 26.0495122,12.6087833 26.6157009,12.6223047 C27.1622832,12.6181994 27.6986851,12.4740253 28.1736732,12.203553 C28.5852218,11.9818818 28.9487068,11.68077 29.2430813,11.3176528 C29.4130471,11.1420393 29.5615972,10.9079085 29.6876803,10.616353 C29.7968616,10.3574261 29.9477408,9.88462996 30.1380094,9.2002525 L30.2122329,8.93343124 L30.3676262,8.35372111 C30.4553917,8.01152207 30.5206903,7.73575524 30.5624088,7.52520452 L30.5848552,7.40701578 L30.610785,7.24156393 C30.64228,6.95565604 30.620926,6.72488502 30.5454864,6.54929211 C30.4678001,6.21377133 30.2752848,5.91547567 29.9646632,5.65323028 C29.6517125,5.38752207 29.2081441,5.25243157 28.6318143,5.2457327 Z M25.4945569,5.3054042 L20.4177389,5.3054042 L20.149784,6.28471757 L22.135536,6.28471757 L20.4199856,12.5626538 L21.5253821,12.5626538 L23.2409325,6.28583061 L25.2266639,6.28583061 L25.4945569,5.3054042 Z M35.1169415,5.3054042 L32.4884275,5.3054042 L30.5060558,12.5626538 L31.6059077,12.5626538 L32.3803798,9.73045283 L34.0531605,9.73045283 C34.8028365,9.7169108 35.4354574,9.47826602 35.9510645,9.01338487 C36.449708,8.57206313 36.7727998,8.08244767 36.9191032,7.54550724 C37.0282845,7.14695522 37.0485666,6.8025095 36.9787747,6.50984091 C36.9191032,6.2081443 36.7964004,5.97512659 36.6118619,5.81192141 C36.4234993,5.61161131 36.1859608,5.46412514 35.922888,5.38414172 C35.6580832,5.32994662 35.388342,5.30355762 35.1180545,5.3054042 L35.1169415,5.3054042 Z M28.3312719,6.34550209 C28.5924455,6.3522628 28.8051811,6.40290628 28.9717666,6.49967924 C29.0813364,6.56791883 29.175322,6.65844925 29.2476159,6.76538743 L29.3072668,6.87343511 L29.3601776,6.97247537 C29.4253886,7.13172991 29.4516338,7.30425265 29.4367302,7.4756947 C29.4220751,7.65242126 29.3669383,7.93721611 29.2711959,8.3289868 L29.2194188,8.53269437 L29.1125048,8.93343124 C28.9177428,9.64711885 28.7612983,10.1300354 28.6419759,10.3822222 C28.558237,10.5600983 28.4477471,10.7240989 28.3143495,10.8685192 L28.1815882,10.9946229 L28.0869795,11.0812548 C27.957516,11.1915491 27.810079,11.2839111 27.6434935,11.3581346 C27.4174706,11.4684402 27.1689116,11.5247269 26.9174181,11.5225559 C26.6584706,11.5225559 26.4502697,11.4673984 26.2949589,11.3581346 C26.1413872,11.2758859 26.0162259,11.1491872 25.9358581,10.9946229 C25.8356017,10.838096 25.7973666,10.6343884 25.819916,10.3822222 C25.8311083,10.208876 25.8839985,9.9274615 25.9786072,9.53793752 L26.0292507,9.33422996 L26.1361647,8.93343124 C26.3309473,8.21974363 26.4907721,7.73462159 26.6145879,7.4756947 C26.7271495,7.23028922 26.8769157,7.02874591 27.0626703,6.87343511 C27.2202278,6.72377198 27.4059824,6.59880193 27.6220777,6.49967924 C27.8348958,6.40290628 28.0712732,6.3522628 28.3312719,6.34550209 Z M34.8918181,6.34550209 C35.1922987,6.33874137 35.4365705,6.40628663 35.6234587,6.54929211 C35.7470484,6.63295512 35.8362097,6.75849396 35.8744913,6.90274526 C35.908233,7.06933076 35.8936603,7.27303833 35.8272281,7.51506346 C35.7472951,7.80773207 35.5761956,8.07230661 35.3161351,8.31208502 C35.0819837,8.5225533 34.7983225,8.64525604 34.4629048,8.68019324 L34.2918053,8.69027246 L32.664041,8.69027246 L33.3045357,6.34550209 L34.8918181,6.34550209 Z" id="形状" fill="url(#linearGradient-1)"></path>
                    <g id="分组-6" fill-rule="nonzero">
                        <path d="M12.92142,-7.99360578e-15 C11.3708496,-7.99360578e-15 9.93263938,0.725455906 8.98881392,1.90691267 C8.04498846,0.725455906 6.60677823,-7.99360578e-15 5.05620783,-7.99360578e-15 C2.26967551,-7.99360578e-15 3.19744231e-14,2.28000428 3.19744231e-14,5.09891865 C3.19744231e-14,6.77783089 0.808993253,7.95928765 1.46068226,8.89201668 C3.34833319,11.6487491 8.1348766,15.0480282 8.33712491,15.1931194 C8.53937322,15.3382106 8.76409357,15.4003925 8.98881392,15.4003925 C9.21353427,15.4003925 9.43825462,15.3382106 9.64050293,15.1931194 C9.84275124,15.0480282 14.6068226,11.6280218 16.5169456,8.89201668 C17.1686346,7.93856034 17.9776278,6.75710358 17.9776278,5.09891865 C17.9776278,2.30073159 15.7079523,-2.79508143e-10 12.92142,-4.81602336e-15 Z" id="路径" fill="#009966"></path>
                        <path d="M15.2633199,9.07918345 C13.5105012,11.3384604 9.80261548,13.9293744 9.6228392,14.0537382 C9.44306292,14.1781021 9.24081461,14.240284 9.03856629,14.240284 C8.83631798,14.240284 8.63406967,14.1781021 8.45429339,14.0537382 C8.27451711,13.9293744 4.63404747,11.3177331 2.81381265,8.97554689 C2.22953975,8.12572711 1.28571429,7.06863422 1.28571429,5.57626779 C1.28571429,3.06826308 2.81381265,1.28571429 5.28573648,1.28571429 C6.67900264,1.28571429 8.18462897,2.50862567 9.01609426,3.56571856 C9.87003158,2.50862567 11.3531859,1.28571429 12.746452,1.28571429 C15.2408479,1.28571429 16.8588344,3.04753577 16.8588344,5.57626779 C16.8813064,7.06863422 15.8475928,8.25009098 15.2633199,9.07918345 Z" id="路径" fill="#FFFFFF"></path>
                    </g>
                    <g id="分组-8" transform="translate(5.000000, 4.000000)" fill="#009966">
                        <path d="M0.6,3.2 L7.4,3.2 C7.8,3.2 8,3.4 8,3.8 C8,4.2 7.8,4.4 7.4,4.4 L0.6,4.4 C0.2,4.4 0,4.2 0,3.8 C0,3.4 0.2,3.2 0.6,3.2 Z" id="路径"></path>
                        <path d="M3.2,7.4 L3.2,0.6 C3.2,0.2 3.4,0 3.8,0 C4.2,0 4.4,0.2 4.4,0.6 L4.4,7.4 C4.4,7.8 4.2,8 3.8,8 C3.4,8 3.2,7.8 3.2,7.4 Z" id="路径"></path>
                    </g>
                </g>
            </g>
        </g>
    </g>
</svg>