<?xml version="1.0" encoding="UTF-8"?>
<svg width="48px" height="48px" viewBox="0 0 48 48" version="1.1" xmlns="http://www.w3.org/2000/svg" xmlns:xlink="http://www.w3.org/1999/xlink">
    <!-- Generator: Sketch 52 (66869) - http://www.bohemiancoding.com/sketch -->
    <title>拍照上传</title>
    <desc>Created with Sketch.</desc>
    <g id="拍照上传" stroke="none" stroke-width="1" fill="none" fill-rule="evenodd">
        <g>
            <g id="分组">
                <polygon id="Clip-2" points="0.00351648352 0.0468292683 47.9878684 0.0468292683 47.9878684 47.9999415 0.00351648352 47.9999415"></polygon>
                <path d="M43.954696,47.9999415 L4.05702564,47.9999415 C1.82441026,47.9999415 0,46.1777561 0,43.947922 L0,4.09890732 C0,1.86901463 1.82441026,0.0468292683 4.05702564,0.0468292683 L43.9306081,0.0468292683 C46.1632234,0.0468292683 47.9876337,1.86901463 47.9876337,4.09890732 L47.9876337,43.9238634 C48.011663,46.1777561 46.1872527,47.9999415 43.954696,47.9999415 Z" id="Fill-1" fill="#F4F4F4"></path>
            </g>
            <polygon id="Fill-3" fill="#9A9A9A" points="35.4807912 22.8724098 24.8220952 22.8724098 24.8220952 12.2270049 23.1895678 12.2270049 23.1895678 22.8724098 12.5070769 22.8724098 12.5070769 24.5270049 23.1895678 24.5270049 23.1895678 35.1964683 24.8220952 35.1964683 24.8220952 24.5270049 35.4807912 24.5270049"></polygon>
        </g>
    </g>
</svg>