<?xml version="1.0" standalone="no"?><!DOCTYPE svg PUBLIC "-//W3C//DTD SVG 1.1//EN" "http://www.w3.org/Graphics/SVG/1.1/DTD/svg11.dtd"><svg t="1586261264204" class="icon" viewBox="0 0 1024 1024" version="1.1" xmlns="http://www.w3.org/2000/svg" p-id="2069" xmlns:xlink="http://www.w3.org/1999/xlink" width="32" height="32"><defs><style type="text/css"></style></defs><path d="M1024 512c0-282.7776-229.2224-512-512-512S0 229.2224 0 512s229.2224 512 512 512 512-229.2224 512-512z" fill="#F2A900" p-id="2070"></path><path d="M512 870.4a51.2 51.2 0 1 0 0-102.4 51.2 51.2 0 0 0 0 102.4zM512 172.8A211.2 211.2 0 0 1 723.2 384c0 54.016-30.3104 99.4816-85.2992 149.9648l-16.128 14.336-58.5728 48.8448v48.3328a51.2 51.2 0 0 1-44.8 50.7904l-6.4 0.4096a51.2 51.2 0 0 1-50.7904-44.7488L460.8 645.4784v-64.6144c0-23.552 6.6048-35.1232 27.1872-53.9648l15.9232-13.824c1.536-1.28 41.984-34.3552 54.272-45.2608 41.5744-36.352 62.6176-65.3824 62.6176-83.8144a108.8 108.8 0 1 0-217.6 0 51.2 51.2 0 1 1-102.4 0A211.2 211.2 0 0 1 512 172.8z" fill="#FFFFFF" p-id="2071"></path></svg>