<?xml version="1.0" encoding="UTF-8"?>
<svg width="71px" height="66px" viewBox="0 0 71 66" version="1.1" xmlns="http://www.w3.org/2000/svg" xmlns:xlink="http://www.w3.org/1999/xlink">
    <!-- Generator: Sketch 52 (66869) - http://www.bohemiancoding.com/sketch -->
    <title>menzhenyishengzhanxiao</title>
    <desc>Created with Sketch.</desc>
    <g id="AD患者之家5.0" stroke="none" stroke-width="1" fill="none" fill-rule="evenodd">
        <g id="自测报告-确诊AD" transform="translate(-153.000000, -83.000000)">
            <g id="menzhenyishengzhanxiao" transform="translate(153.000000, 84.000000)">
                <path d="M69.9980688,31.5068359 C69.9980688,38.5751953 67.6601782,45.1103516 63.7295142,50.3671875 C62.6152563,51.8574219 61.3916235,53.2382812 60.024436,54.4960938 C59.8808813,54.6396484 59.7441626,54.7763672 59.5801001,54.90625 C56.5859595,57.6132812 53.0586157,59.7597656 49.1826392,61.1611328 C49.0254126,61.2158203 48.8818579,61.2705078 48.7383032,61.3046875 C45.6006079,62.4052734 42.2373267,62.9863281 38.7509985,63.0205078 L38.149436,63.0205078 C38.0605688,63.0205078 37.9717017,63.0205078 37.9033423,63 C37.8144751,63.0205078 37.7256079,63.0205078 37.6572485,63 C37.500022,63 37.3359595,63 37.1787329,62.9794922 C32.9267798,62.8222656 28.9277563,61.8105469 25.2773657,60.1083984 C25.0654517,60.0195313 24.8330298,59.9169922 24.6211157,59.8076172 C24.6211157,59.8076172 24.6006079,59.8076172 24.586936,59.7871094 C24.4638892,59.7324219 24.375022,59.6777344 24.2519751,59.609375 C24.2177954,59.5888672 24.1836157,59.5751953 24.1631079,59.5546875 C24.1289282,59.5341797 24.0947485,59.5205078 24.0537329,59.5 C24.0332251,59.5 24.0332251,59.4794922 24.0195532,59.4794922 C23.828147,59.4111328 23.6640845,59.3017578 23.4863501,59.1992188 C23.0761938,58.9873047 22.6728735,58.7548828 22.2832251,58.5292969 C22.2285376,58.4951172 22.1738501,58.4609375 22.1259985,58.4404297 C19.9453345,57.09375 17.9629126,55.5146484 16.171897,53.7304688 L16.0146704,53.5732422 C15.9599829,53.5185547 15.9052954,53.4638672 15.8574438,53.3955078 C15.8027563,53.3408203 15.734397,53.2861328 15.7002173,53.2177734 C15.4199438,52.9375 15.1533423,52.6503906 14.8867407,52.3496094 C9.9785376,46.8056641 7.00490479,39.4912109 7.00490479,31.5 C7.00490479,14.109375 21.1006079,0.0068359375 38.4980688,0.0068359375 C55.9023657,0.013671875 69.9980688,14.109375 69.9980688,31.5068359 Z" id="路径" stroke="#FFFFFF" stroke-width="2" fill="#4A90E2"></path>
                <path d="M63.7326587,50.3651367 C62.6184009,51.8553711 61.3947681,53.2362305 60.0275806,54.494043 C59.8840259,54.6375977 59.7473071,54.7743164 59.5832446,54.9041992 C56.589104,57.6112305 53.0617603,59.7577148 49.1857837,61.159082 C49.0285571,61.2137695 48.8850024,61.268457 48.7414478,61.3026367 C45.6037524,62.4032227 42.2404712,62.9842773 38.7541431,63.018457 L38.1525806,63.018457 C38.0637134,63.018457 37.9748462,63.018457 37.9064868,62.9979492 C37.8176196,63.018457 37.7287524,63.018457 37.6603931,62.9979492 C37.5031665,62.9979492 37.339104,62.9979492 37.1818774,62.9774414 C32.9299243,62.8202148 28.9309009,61.8084961 25.2805103,60.1063477 C25.0685962,60.0174805 24.8361743,59.9149414 24.6242603,59.8055664 C24.6242603,59.8055664 24.6037524,59.8055664 24.5900806,59.7850586 C24.4670337,59.7303711 24.3781665,59.6756836 24.2551196,59.6073242 C24.2209399,59.5868164 24.1867603,59.5731445 24.1662524,59.5526367 C24.1320728,59.5321289 24.0978931,59.518457 24.0568774,59.4979492 C24.0363696,59.4979492 24.0363696,59.4774414 24.0226978,59.4774414 C23.8312915,59.409082 23.667229,59.299707 23.4894946,59.197168 C23.0793384,58.9852539 22.6760181,58.752832 22.2863696,58.5272461 C22.2316821,58.4930664 22.1769946,58.4588867 22.1291431,58.4383789 C19.948479,57.0916992 17.9660571,55.5125977 16.1750415,53.728418 L16.0178149,53.5711914 C15.9631274,53.5165039 15.9084399,53.4618164 15.8605884,53.393457 C15.8059009,53.3387695 15.7375415,53.284082 15.7033618,53.2157227 C15.4230884,52.9354492 15.1564868,52.6483398 14.8898853,52.3475586 C14.8693774,49.4422852 15.135979,47.0018555 15.4230884,45.3133789 C16.4142993,39.5711914 18.5060962,38.3885742 20.0305103,37.4999023 C21.4113696,36.665918 22.3137134,36.0848633 24.9045337,35.3192383 C26.4084399,34.8954102 28.0559009,34.4305664 29.8469165,33.9041992 L29.8674243,33.9041992 C30.2912524,33.7811523 30.7150806,33.6581055 31.1594165,33.5350586 L31.1799243,33.5350586 C31.3371509,33.4803711 31.5012134,33.4461914 31.6584399,33.3915039 C31.7473071,33.3573242 31.8498462,33.3368164 31.9387134,33.3026367 C32.307854,33.1932617 32.6838306,33.0907227 33.0529712,32.9813477 L39.3420337,34.2049805 L45.6310962,32.9813477 C46.1779712,33.1385742 46.7111743,33.3026367 47.2238696,33.4393555 C47.3127368,33.4735352 47.4152759,33.494043 47.5041431,33.5282227 C47.948479,33.6512695 48.3928149,33.7743164 48.8166431,33.8973633 L48.8371509,33.8973633 C50.6281665,34.4305664 52.2756274,34.8885742 53.7590259,35.3124023 C56.3635181,36.0711914 57.2658618,36.659082 58.6467212,37.4930664 C60.1506274,38.3817383 62.2424243,39.5643555 63.2541431,45.306543 C63.4660571,46.612207 63.6574634,48.3348633 63.7326587,50.3651367 Z" id="路径" fill="#F6F6F6"></path>
                <path d="M33.1076587,25.9129883 C33.2990649,28.0868164 32.9777759,33.1795898 32.3283618,34.915918 C33.948479,37.5887695 36.6008228,39.509668 39.3215259,39.509668 C42.042229,39.509668 44.6945728,37.5887695 46.3146899,34.915918 C45.6652759,33.1795898 45.3439868,28.0868164 45.5353931,25.9129883 L33.1076587,25.9129883 Z" id="路径" fill="#F5C49A"></path>
                <path d="M45.5353931,29.549707 C44.0861743,32.2499023 42.0559009,34.1229492 39.3146899,34.1229492 C36.573479,34.1229492 34.5500415,32.2499023 33.0939868,29.549707 C33.1076587,29.3241211 33.1144946,29.1053711 33.1281665,28.8866211 C34.5500415,31.5799805 36.5598071,33.4735352 39.3146899,33.4735352 C42.0695728,33.4735352 44.0793384,31.5799805 45.5012134,28.8866211 C45.5148853,29.1053711 45.5285571,29.3241211 45.5353931,29.549707" id="路径" fill="#DB9960"></path>
                <path d="M45.7883228,33.0428711 C45.4123462,33.5008789 44.9885181,34.1092773 44.3185962,34.5741211 C43.5666431,35.0936523 41.0851978,37.0760742 39.3146899,37.9647461 C37.5510181,37.0760742 35.0627368,35.0936523 34.3107837,34.5741211 C33.6408618,34.1092773 33.2170337,33.494043 32.8410571,33.0428711 C32.7248462,33.7606445 32.4787524,34.4989258 32.3215259,34.915918 C33.0871509,36.1805664 36.1701587,38.4364258 39.2668384,38.4432617 C42.3908618,38.4500977 45.5285571,36.1942383 46.3010181,34.915918 C46.1574634,34.4989258 45.9045337,33.7606445 45.7883228,33.0428711" id="路径" fill="#DB9960"></path>
                <path d="M48.0236743,18.5780273 C48.8918384,17.087793 50.0744556,17.4364258 49.7121509,20.3416992 C49.5275806,21.8045898 48.0305103,25.9266602 47.0392993,23.8895508 C47.3195728,21.4012695 48.0236743,18.5780273 48.0236743,18.5780273 M30.6125415,18.5780273 C29.7443774,17.087793 28.5617603,17.4364258 28.9240649,20.3416992 C29.1086353,21.8045898 30.6057056,25.9266602 31.5969165,23.8895508 C31.3166431,21.4012695 30.6125415,18.5780273 30.6125415,18.5780273" id="形状" fill="#FABB85" fill-rule="nonzero"></path>
                <path d="M39.3215259,33.4735352 C45.2346118,33.4735352 47.7434009,24.737207 48.276604,18.1200195 C48.5910571,14.1893555 46.1301196,8.16005859 39.3215259,8.16005859 C32.5129321,8.16005859 30.0519946,14.1893555 30.3664478,18.1200195 C30.8996509,24.737207 33.4084399,33.4735352 39.3215259,33.4735352" id="路径" fill="#F5C49A"></path>
                <path d="M46.5334399,9.98525391 C46.1232837,11.2157227 45.9113696,13.1229492 46.2941821,14.1688477 C46.6769946,15.2147461 47.3127368,15.6180664 47.2375415,16.0829102 C47.1623462,16.5477539 46.7316821,17.5116211 46.8410571,18.4754883 C46.9504321,19.4393555 47.3469165,19.5487305 47.3810962,20.5057617 C47.4152759,21.4696289 47.2717212,21.9686523 47.4562915,22.3993164 C47.7434009,21.900293 47.6750415,20.4032227 47.7775806,19.7606445 C47.8869556,19.1180664 48.495354,18.4413086 48.7824634,17.5116211 C49.0695728,16.5819336 49.2131274,14.6541992 49.1789478,12.9110352 C49.1447681,11.1610352 48.932854,10.1219727 48.0305103,9.13076172 C47.6750415,8.74111328 46.8684009,8.98720703 46.5334399,9.98525391 M32.1027759,9.98525391 C32.5129321,11.2157227 32.7248462,13.1229492 32.3420337,14.1688477 C31.9592212,15.2147461 31.323479,15.6180664 31.3986743,16.0829102 C31.4738696,16.5477539 31.9045337,17.5116211 31.7951587,18.4754883 C31.6857837,19.4393555 31.2892993,19.5487305 31.2551196,20.5057617 C31.2209399,21.462793 31.3644946,21.9686523 31.1799243,22.3993164 C30.8928149,21.900293 30.9611743,20.4032227 30.8586353,19.7606445 C30.7492603,19.1180664 30.1408618,18.4413086 29.8537524,17.5116211 C29.5666431,16.5819336 29.4230884,14.6541992 29.4572681,12.9110352 C29.4914478,11.1610352 29.7033618,10.1219727 30.6057056,9.13076172 C30.9680103,8.74111328 31.7678149,8.98720703 32.1027759,9.98525391" id="形状" fill="#333333" fill-rule="nonzero"></path>
                <path d="M47.1418384,10.5594727 C46.4855884,11.8856445 42.4318774,14.4833008 38.4807056,14.4833008 C34.5295337,14.4833008 30.9680103,13.8407227 29.1017993,11.7010742 C29.7512134,9.52724609 30.6877368,7.84560547 32.8068774,6.10244141 C34.495354,4.70791016 37.0451587,4.39345703 39.0275806,4.39345703 C42.260979,4.39345703 44.6740649,5.35732422 46.1096118,6.56728516 C47.5383228,7.77724609 48.1125415,8.59755859 47.1418384,10.5594727" id="路径" fill="#333333"></path>
                <path d="M37.2912524,22.2625977 C36.7512134,22.7547852 35.9855884,23.0418945 35.1926196,23.0418945 C34.5021899,23.0418945 33.8527759,22.8299805 33.3674243,22.447168 C32.5676196,21.8182617 32.4103931,20.9022461 32.3967212,20.799707 C32.3488696,20.478418 32.3215259,20.2186523 32.4240649,19.924707 C32.526604,19.6307617 32.7043384,19.494043 32.9162524,19.3504883 C33.1486743,19.1932617 33.3810962,19.0770508 33.6271899,18.9950195 C34.2219165,18.7967773 34.6867603,18.8104492 35.151604,18.8583008 C35.4387134,18.8856445 36.0334399,18.9813477 36.8400806,19.3231445 C37.7971118,19.7264648 38.214104,20.3895508 38.1389087,20.7655273 C38.0363696,21.2166992 37.8039478,21.790918 37.2912524,22.2625977 M38.3029712,19.6239258 C37.7492603,19.1249023 37.229729,18.940332 36.6418384,18.721582 C35.8967212,18.4413086 35.1037524,18.3045898 34.2834399,18.3045898 C33.8254321,18.3045898 33.3674243,18.3524414 32.9230884,18.4413086 C32.9162524,18.4413086 32.9094165,18.4413086 32.9025806,18.4481445 L32.8957446,18.4481445 L32.8889087,18.4481445 C32.1848071,18.5848633 31.6652759,18.7352539 31.3644946,19.0018555 C31.0568774,19.268457 31.0637134,19.7674805 31.323479,20.0272461 C31.4260181,20.1366211 31.5627368,20.3143555 31.6857837,20.4920898 C31.8019946,20.6629883 31.8840259,20.8612305 31.9387134,21.0663086 C32.0412524,21.455957 32.3283618,22.221582 33.0392993,22.7821289 C33.6135181,23.2333008 34.3791431,23.4793945 35.1857837,23.4793945 C36.1086353,23.4793945 37.0041431,23.1444336 37.6398853,22.5633789 C38.3166431,21.9481445 38.5832446,21.1620117 38.6857837,20.6219727 C38.7678149,20.2459961 38.5900806,19.8836914 38.3029712,19.6239258" id="形状" fill="#606060" fill-rule="nonzero"></path>
                <path d="M39.3215259,20.1571289 C39.5676196,20.1571289 39.8478931,20.3211914 39.964104,20.690332 L40.1623462,19.9041992 C39.9025806,19.7948242 39.6086353,19.7401367 39.3215259,19.7401367 C39.0275806,19.7401367 38.7336353,19.7948242 38.4807056,19.9110352 L38.6857837,20.697168 C38.7951587,20.3211914 39.0754321,20.1571289 39.3215259,20.1571289" id="路径" fill="#606060"></path>
                <path d="M40.4973071,20.7586914 C40.4221118,20.3827148 40.839104,19.7196289 41.7892993,19.3094727 C42.5959399,18.9676758 43.1906665,18.8719727 43.4777759,18.837793 C43.9426196,18.7899414 44.4074634,18.7694336 45.0021899,18.9745117 C45.2482837,19.056543 45.4807056,19.1727539 45.7131274,19.3299805 C45.9250415,19.4735352 46.1027759,19.6102539 46.2053149,19.9041992 C46.3146899,20.1981445 46.2805103,20.4579102 46.2394946,20.7791992 C46.2258228,20.8817383 46.0685962,21.7977539 45.2756274,22.4266602 C44.7902759,22.8094727 44.1408618,23.0213867 43.4504321,23.0282227 C42.6574634,23.0282227 41.8918384,22.7479492 41.3517993,22.2557617 C40.8459399,21.784082 40.6066821,21.2098633 40.4973071,20.7586914 M39.9504321,20.6219727 C40.0598071,21.1688477 40.3264087,21.9481445 41.0031665,22.5633789 C41.6389087,23.1444336 42.5344165,23.4725586 43.4572681,23.4725586 C44.2639087,23.4725586 45.0226978,23.2196289 45.5969165,22.768457 C46.3146899,22.2010742 46.5949634,21.4422852 46.6975024,21.0458008 C46.7521899,20.8407227 46.8342212,20.6424805 46.9504321,20.471582 C47.073479,20.2870117 47.2101978,20.1092773 47.3127368,19.9999023 C47.5725024,19.7333008 47.5793384,19.2342773 47.2648853,18.9745117 C46.964104,18.7147461 46.4445728,18.5643555 45.7404712,18.4276367 L45.7336353,18.4276367 L45.7267993,18.4276367 C45.7199634,18.4276367 45.7131274,18.4276367 45.7062915,18.4208008 C45.2551196,18.3319336 44.7971118,18.290918 44.3459399,18.290918 C43.5324634,18.290918 42.7394946,18.4344727 41.9943774,18.7147461 C41.4064868,18.9334961 40.8869556,19.1180664 40.3332446,19.6239258 C40.0461353,19.8768555 39.8752368,20.2391602 39.9504321,20.6219727" id="形状" fill="#606060" fill-rule="nonzero"></path>
                <path d="M49.1310962,17.7235352 C49.0080493,17.7030273 48.8713306,17.7235352 48.7346118,17.7987305 C48.7209399,17.7918945 48.7004321,17.7918945 48.6867603,17.7918945 C48.6662524,17.7987305 48.6457446,17.8055664 48.6320728,17.8260742 L48.5978931,17.8807617 L48.2355884,18.4754883 L47.9142993,19.0018555 L47.5451587,19.603418 C47.5519946,19.5555664 47.5519946,19.5145508 47.5519946,19.4666992 C47.5451587,19.2479492 47.4494556,19.056543 47.2990649,18.9266602 C47.1965259,18.837793 47.073479,18.7694336 46.9367603,18.7010742 L48.2971118,17.5389648 L48.6457446,17.2381836 C48.7004321,17.190332 48.7687915,17.1698242 48.8371509,17.1698242 L48.8713306,17.1698242 C48.9670337,17.1834961 49.0559009,17.2381836 49.0969165,17.3338867 C49.1652759,17.4569336 49.1379321,17.5868164 49.1310962,17.7235352 M29.5119556,17.7235352 C29.6350024,17.7030273 29.7717212,17.7235352 29.9084399,17.7987305 C29.9221118,17.7918945 29.9426196,17.7918945 29.9562915,17.7918945 C29.9767993,17.7987305 29.9973071,17.8055664 30.010979,17.8260742 L30.0451587,17.8807617 L30.4074634,18.4754883 L30.7287524,19.0018555 L31.0978931,19.603418 C31.0910571,19.5555664 31.0910571,19.5145508 31.0910571,19.4666992 C31.0978931,19.2479492 31.1935962,19.056543 31.3439868,18.9266602 C31.4465259,18.837793 31.5695728,18.7694336 31.7062915,18.7010742 L30.3459399,17.5389648 L29.9973071,17.2381836 C29.9426196,17.190332 29.8742603,17.1698242 29.8059009,17.1698242 L29.7717212,17.1698242 C29.6760181,17.1834961 29.5871509,17.2381836 29.5392993,17.3338867 C29.4777759,17.4569336 29.5051196,17.5868164 29.5119556,17.7235352" id="形状" fill="#606060" fill-rule="nonzero"></path>
                <polygon id="路径" fill="#A3CEFF" points="39.3215259 38.2723633 31.7951587 36.119043 29.0744556 38.627832 39.3215259 60.1405273 49.5685962 38.627832 46.8410571 36.119043"></polygon>
                <path d="M39.3215259,43.1600586 C39.0959399,43.1600586 38.8361743,43.1942383 38.5627368,43.2489258 C37.9680103,42.455957 37.3527759,41.9500977 36.5119556,41.4305664 C37.0656665,40.9999023 38.2961353,39.3387695 38.6994556,38.6961914 C38.8088306,38.7030273 39.2053149,38.7098633 39.3146899,38.7098633 C39.4240649,38.7098633 39.8273853,38.7030273 39.9299243,38.6961914 C40.3332446,39.3387695 41.5637134,41.0067383 42.1174243,41.4305664 C41.276604,41.9500977 40.6613696,42.462793 40.0666431,43.2489258 C39.8068774,43.1942383 39.5471118,43.1600586 39.3215259,43.1600586" id="路径" fill="#A0B0BD"></path>
                <path d="M41.1398853,42.134668 L38.104729,39.5575195 C37.9543384,39.7557617 37.7971118,39.9676758 37.6398853,40.1795898 L40.5725024,42.674707 C40.7502368,42.4764648 40.9416431,42.2987305 41.1398853,42.134668" id="路径" fill="#DFE6F8"></path>
                <path d="M38.6721118,38.744043 C38.542229,38.9491211 38.3439868,39.2362305 38.1115649,39.5506836 L41.1467212,42.127832 C41.3996509,41.9227539 41.6662524,41.7245117 41.9670337,41.5331055 L38.6721118,38.744043 Z M37.0178149,40.931543 L39.6701587,43.1805664 C39.8000415,43.1942383 39.9435962,43.2147461 40.0803149,43.2489258 C40.2443774,43.0370117 40.4084399,42.8456055 40.5725024,42.6610352 L37.6398853,40.165918 C37.4279712,40.4461914 37.2160571,40.705957 37.0178149,40.931543 Z" id="形状" fill="#5D6F85" fill-rule="nonzero"></path>
                <path d="M39.3215259,60.1405273 C38.6926196,58.2948242 36.7170337,55.362207 35.9103931,53.6395508 C36.3000415,50.6454102 37.448479,45.962793 38.5695728,43.2489258 C38.8361743,43.1874023 39.1027759,43.1600586 39.3283618,43.1600586 C39.5539478,43.1600586 39.8205493,43.1942383 40.0871509,43.2489258 C41.2014087,45.962793 42.3498462,50.6454102 42.7463306,53.6395508 C41.9260181,55.362207 39.9504321,58.2948242 39.3215259,60.1405273 Z" id="路径" fill="#A0B0BD"></path>
                <path d="M38.104729,57.5975586 C38.2892993,57.9256836 38.4670337,58.2538086 38.6242603,58.5750977 L41.2355884,56.353418 C41.5021899,55.8885742 41.7687915,55.4305664 42.0080493,54.9999023 L41.9396899,54.3299805 L38.104729,57.5975586 Z M40.5861743,44.6161133 L37.1818774,47.5077148 C37.0246509,48.1024414 36.8674243,48.7108398 36.7307056,49.3124023 L40.948479,45.7235352 C40.8254321,45.3407227 40.7092212,44.971582 40.5861743,44.6161133 Z M41.8371509,48.9911133 L36.1838306,53.7967773 L36.1838306,54.2000977 C36.3000415,54.4188477 36.4230884,54.6512695 36.5598071,54.8973633 L42.1037524,50.1805664 C42.0217212,49.784082 41.932854,49.3875977 41.8371509,48.9911133 Z" id="形状" fill="#DFE6F8" fill-rule="nonzero"></path>
                <path d="M42.5617603,52.518457 L37.6125415,56.7225586 C37.776604,57.009668 37.9406665,57.3036133 38.104729,57.5907227 L42.7121509,53.6737305 L42.7326587,53.6327148 C42.6848071,53.290918 42.6301196,52.9149414 42.5617603,52.518457 Z M40.2238696,43.6317383 L37.667229,45.8055664 C37.4963306,46.3524414 37.3322681,46.9266602 37.1818774,47.5077148 L40.5861743,44.6161133 C40.4631274,44.2674805 40.3469165,43.9393555 40.2238696,43.6317383 Z M41.5705493,47.924707 L36.0607837,52.6073242 C35.9992603,52.9696289 35.9514087,53.3114258 35.9035571,53.6395508 C35.9445728,53.728418 35.9924243,53.8172852 36.0402759,53.9129883 L41.8371509,48.9842773 C41.7482837,48.6356445 41.6594165,48.2801758 41.5705493,47.924707 Z M39.0617603,59.4911133 L39.9094165,58.7665039 C40.292229,58.0008789 40.7639087,57.1668945 41.2355884,56.353418 L38.6242603,58.5750977 C38.7883228,58.8963867 38.9387134,59.2040039 39.0617603,59.4911133 Z M42.1105884,50.1805664 L36.5666431,54.8973633 C36.7238696,55.1776367 36.8879321,55.4647461 37.0588306,55.7655273 L42.3361743,51.2743164 C42.2678149,50.9120117 42.1926196,50.549707 42.1105884,50.1805664 Z M40.948479,45.7235352 L36.7238696,49.3124023 C36.6008228,49.8456055 36.4846118,50.3788086 36.3752368,50.8983398 L41.2492603,46.7557617 C41.1535571,46.4071289 41.0510181,46.0584961 40.948479,45.7235352 Z" id="形状" fill="#5D6F85" fill-rule="nonzero"></path>
                <path d="M38.4260181,43.5907227 C38.7404712,43.5291992 39.0549243,43.4950195 39.3215259,43.4950195 C39.5881274,43.4950195 39.8957446,43.5291992 40.2170337,43.5907227 C40.1691821,43.4745117 40.1281665,43.3583008 40.0803149,43.2489258 C39.8137134,43.1874023 39.5471118,43.1600586 39.3215259,43.1600586 C39.0959399,43.1600586 38.8293384,43.1942383 38.5627368,43.2489258 C38.5148853,43.3583008 38.4738696,43.4745117 38.4260181,43.5907227" id="路径" fill="#2E2E2E"></path>
                <path d="M45.3303149,39.9061523 C44.1682056,41.3416992 43.2385181,42.1551758 42.0080493,43.0848633 C41.5226978,42.0321289 40.6271899,40.6307617 39.964104,39.4754883 C39.745354,39.0995117 39.5471118,38.744043 39.4035571,38.4432617 C39.3762134,38.3817383 39.3488696,38.3270508 39.3215259,38.2723633 C39.2941821,38.3270508 39.2668384,38.3885742 39.2394946,38.4432617 C39.0959399,38.744043 38.8976978,39.0926758 38.6789478,39.4754883 C38.0158618,40.6239258 37.120354,42.0321289 36.6350024,43.0848633 C35.4045337,42.1551758 34.4748462,41.3485352 33.3127368,39.9061523 C32.8889087,39.3866211 32.5744556,38.8670898 32.3351978,38.3680664 C32.3693774,38.6688477 32.4103931,38.962793 32.4514087,39.2567383 C32.6769946,39.6805664 32.9572681,40.1180664 33.3127368,40.5555664 C34.3244556,41.806543 35.1584399,42.5790039 36.1633228,43.3719727 C36.4025806,43.556543 36.7512134,43.4881836 36.8879321,43.221582 C37.3937915,42.2508789 38.1184009,41.1024414 38.6789478,40.1317383 C38.8976978,39.7557617 39.1779712,39.3866211 39.3215259,39.0790039 C39.4650806,39.3797852 39.745354,39.7489258 39.964104,40.1317383 C40.5246509,41.1024414 41.2492603,42.2577148 41.7551196,43.221582 C41.8918384,43.4881836 42.2473071,43.5633789 42.479729,43.3719727 C43.4846118,42.5790039 44.3185962,41.806543 45.3303149,40.5555664 C45.7267993,40.0633789 46.0344165,39.5848633 46.2668384,39.1131836 C46.307854,38.8124023 46.3488696,38.5116211 46.3898853,38.2040039 C46.1369556,38.7577148 45.7951587,39.3250977 45.3303149,39.9061523" id="路径" fill="#4D4D4D"></path>
                <path d="M45.8566821,32.8788086 C45.8361743,32.9334961 45.8156665,32.9881836 45.7883228,33.0428711 L45.7883228,33.0360352 C45.8156665,32.9813477 45.8361743,32.9266602 45.8566821,32.8788086 C45.8019946,32.4754883 45.7473071,32.0584961 45.6994556,31.6209961 L45.7404712,31.6620117 C45.7541431,31.6756836 45.760979,31.6825195 45.7678149,31.6961914 C45.7746509,31.7030273 45.7814868,31.7166992 45.7883228,31.7235352 C45.8088306,31.7508789 45.8293384,31.7850586 45.8430103,31.8124023 C45.8635181,31.846582 45.8771899,31.8807617 45.8908618,31.9149414 C45.8976978,31.9354492 45.9045337,31.9491211 45.9113696,31.9696289 C45.9250415,32.0106445 45.9318774,32.0448242 45.9387134,32.0858398 C45.9455493,32.1063477 45.9455493,32.1268555 45.9523853,32.1541992 C45.9865649,32.3866211 45.9523853,32.619043 45.8566821,32.8788086" id="路径" fill="#5D6978"></path>
                <path d="M45.3303149,39.9061523 C44.1682056,41.3416992 43.2385181,42.1551758 42.0080493,43.0848633 C41.5226978,42.0321289 40.6271899,40.6307617 39.964104,39.4754883 C39.745354,39.0995117 39.5471118,38.744043 39.4035571,38.4432617 C39.3762134,38.3817383 39.3488696,38.3270508 39.3215259,38.2723633 C40.8937915,37.4110352 43.1701587,35.7362305 43.9289478,35.1483398 C44.8312915,34.4510742 45.4807056,33.712793 45.7814868,33.056543 C45.7814868,33.049707 45.7883228,33.049707 45.7883228,33.0428711 C45.8156665,32.9881836 45.8361743,32.9334961 45.8566821,32.8856445 C45.9455493,32.6327148 45.9865649,32.393457 45.9592212,32.174707 C45.9592212,32.1541992 45.9523853,32.1336914 45.9523853,32.1131836 C45.9455493,32.072168 45.9318774,32.0311523 45.9250415,31.9969727 C45.9182056,31.9764648 45.9113696,31.962793 45.9045337,31.9422852 C45.8908618,31.9081055 45.8771899,31.8739258 45.8566821,31.8397461 C45.8361743,31.8055664 45.8225024,31.7782227 45.8019946,31.7508789 C45.7951587,31.737207 45.7883228,31.7303711 45.7814868,31.7235352 C45.7746509,31.7098633 45.760979,31.6961914 45.7541431,31.6893555 L45.7131274,31.6483398 C45.6994556,31.5458008 45.6926196,31.4432617 45.6789478,31.3407227 C46.5402759,31.8192383 46.7316821,32.8651367 46.854729,33.8426758 C46.9982837,35.0594727 47.3605884,37.3973633 45.3303149,39.9061523" id="路径" fill="#C5E0FF"></path>
                <path d="M32.9367603,31.6209961 C32.8889087,32.0584961 32.8410571,32.4754883 32.7795337,32.8719727 C32.8000415,32.9266602 32.8205493,32.9813477 32.8478931,33.0291992 L32.8478931,33.0360352 C32.8205493,32.9813477 32.8000415,32.9266602 32.7795337,32.8719727 C32.6838306,32.619043 32.6496509,32.3797852 32.6769946,32.1610352 C32.6906665,32.0516602 32.7180103,31.962793 32.7521899,31.8807617 C32.7863696,31.7987305 32.8342212,31.7235352 32.8889087,31.6620117 C32.9094165,31.6483398 32.9230884,31.634668 32.9367603,31.6209961" id="路径" fill="#5D6978"></path>
                <path d="M39.3215259,38.2723633 C39.2941821,38.3270508 39.2668384,38.3885742 39.2394946,38.4432617 C39.0959399,38.744043 38.8976978,39.0995117 38.6789478,39.4754883 C38.0158618,40.6239258 37.120354,42.0321289 36.6350024,43.0848633 C35.4045337,42.1551758 34.4748462,41.3485352 33.3127368,39.9061523 C31.2824634,37.3973633 31.6447681,35.0594727 31.7951587,33.822168 C31.9113696,32.837793 32.1096118,31.7987305 32.9709399,31.3202148 C32.964104,31.4227539 32.9504321,31.525293 32.9435962,31.627832 L32.9025806,31.6688477 C32.8478931,31.7303711 32.8000415,31.8055664 32.7658618,31.8875977 C32.7316821,31.9696289 32.7043384,32.0584961 32.6906665,32.1678711 C32.6633228,32.3866211 32.6975024,32.6258789 32.7932056,32.8788086 C32.8137134,32.9334961 32.8342212,32.9881836 32.8615649,33.0428711 C32.8615649,33.049707 32.8684009,33.056543 32.8684009,33.056543 C33.1691821,33.712793 33.8254321,34.4510742 34.7209399,35.1483398 C35.4728931,35.7362305 37.7424243,37.4110352 39.3215259,38.2723633" id="路径" fill="#C5E0FF"></path>
                <path d="M31.6310962,33.4051758 C31.0226978,33.5829102 30.4279712,33.7538086 29.8469165,33.9178711 C28.5275806,34.8885742 26.9006274,36.2967773 26.0256274,37.752832 C25.9025806,37.9579102 25.9709399,38.2313477 26.182854,38.3475586 C26.9689868,38.8055664 27.6457446,39.2499023 28.3566821,39.7831055 C27.3244556,40.377832 25.9299243,41.3416992 25.3283618,41.8885742 C25.1711353,42.025293 25.1369556,42.2577148 25.2463306,42.4354492 C30.0930103,50.3856445 34.6115649,56.4901367 38.6721118,60.5780273 L39.1096118,61.0223633 L39.5129321,60.1883789 C32.3762134,49.6131836 30.3937915,36.221582 31.6310962,33.4051758 Z" id="路径" fill="#D6D6D6"></path>
                <path d="M31.9045337,33.1043945 C31.0978931,33.494043 27.7619556,35.7157227 26.4084399,37.978418 C27.4543384,38.5868164 28.2746509,39.1610352 29.1564868,39.8514648 C28.1721118,40.3368164 26.3264087,41.580957 25.6291431,42.2166992 C29.3410571,48.3006836 34.0920337,55.3553711 38.9934009,60.2772461 C39.1027759,60.0448242 39.2189868,59.8124023 39.3283618,59.5868164 C34.6457446,49.7772461 32.3488696,43.3993164 31.9045337,33.1043945 Z" id="路径" fill="#F6F6F6"></path>
                <path d="M53.3898853,42.4354492 C50.0060962,47.9999023 42.9377368,58.2674805 38.760979,63.018457 L38.1594165,63.018457 C38.0705493,63.018457 37.9816821,63.018457 37.9133228,62.9979492 C42.6096118,56.3192383 45.0363696,50.4061523 46.2531665,45.5868164 C47.1896899,41.9022461 47.401604,38.8739258 47.401604,36.6454102 L47.401604,36.6249023 C47.3810962,35.244043 47.292229,34.1776367 47.2101978,33.4735352 L47.2101978,33.4530273 C47.2990649,33.487207 47.401604,33.5077148 47.4904712,33.5418945 C47.9348071,33.6649414 48.3791431,33.7879883 48.8029712,33.9110352 L48.823479,33.9110352 C49.9719165,34.7791992 51.6945728,36.1942383 52.6105884,37.752832 C52.7336353,37.9647461 52.6652759,38.2313477 52.4670337,38.3543945 C51.667229,38.7987305 50.9973071,39.2567383 50.2863696,39.7899414 C51.3117603,40.3915039 52.7131274,41.3485352 53.3146899,41.8954102 C53.4582446,42.025293 53.4924243,42.2577148 53.3898853,42.4354492 Z" id="路径" fill="#D6D6D6"></path>
                <path d="M38.9865649,60.2772461 C39.0959399,60.0448242 39.2121509,59.8124023 39.3215259,59.5868164 C39.2394946,59.415918 39.1574634,59.2450195 39.0822681,59.0741211 C38.9455493,59.3612305 38.8088306,59.6483398 38.6652759,59.9422852 C38.7678149,60.0584961 38.8771899,60.1678711 38.9865649,60.2772461 Z" id="路径" fill="#D6D6D6"></path>
                <path d="M53.0139087,42.2235352 C49.5754321,47.8768555 42.260979,58.4657227 38.1525806,63.018457 C38.0637134,63.018457 37.9748462,63.018457 37.9064868,62.9979492 C37.8176196,63.018457 37.7287524,63.018457 37.6603931,62.9979492 C37.8517993,62.5536133 38.0842212,62.0956055 38.4055103,61.494043 C38.4738696,61.3504883 38.5490649,61.2137695 38.5969165,61.0838867 C38.651604,60.9608398 38.7199634,60.837793 38.7746509,60.6942383 C38.8088306,60.6600586 38.8293384,60.6258789 38.8430103,60.5848633 L38.8430103,60.5643555 C38.8635181,60.5301758 38.8771899,60.509668 38.8771899,60.4754883 C38.9113696,60.4413086 38.9113696,60.4071289 38.9318774,60.3661133 C38.9660571,60.3319336 38.9660571,60.2977539 38.9865649,60.2567383 L39.0070728,60.2362305 C39.0412524,60.1473633 39.0754321,60.0790039 39.1301196,59.9901367 C39.1301196,59.9696289 39.1506274,59.9354492 39.1506274,59.9217773 C39.1711353,59.9012695 39.1848071,59.8670898 39.1848071,59.853418 C39.1848071,59.853418 39.1848071,59.8329102 39.2053149,59.8329102 L39.2053149,59.8124023 C39.2258228,59.7918945 39.2258228,59.7782227 39.2394946,59.7577148 L39.2394946,59.737207 C39.2736743,59.6825195 39.2941821,59.627832 39.3283618,59.5799805 L39.3283618,59.5594727 C39.417229,59.3817383 39.4855884,59.2040039 39.5744556,59.0262695 C39.9094165,58.3016602 40.2443774,57.6112305 40.5519946,56.9208008 C40.9211353,56.1415039 41.276604,55.362207 41.5978931,54.6170898 L41.5978931,54.596582 C41.8986743,53.9266602 42.1994556,53.2499023 42.4660571,52.5936523 C42.5002368,52.525293 42.5207446,52.4500977 42.5549243,52.3817383 L42.5549243,52.3612305 C44.7492603,46.9745117 46.0617603,42.2098633 46.5949634,36.1737305 C46.6838306,35.2508789 46.7385181,34.3143555 46.7863696,33.3231445 C46.9435962,33.3573242 47.0871509,33.3915039 47.2101978,33.4461914 C47.2990649,33.4666992 47.3879321,33.4803711 47.4904712,33.5145508 C48.8029712,34.362207 51.1545337,36.1327148 52.2346118,37.9442383 C51.1887134,38.5663086 50.3752368,39.1336914 49.4865649,39.8241211 C50.464104,40.3436523 52.323479,41.580957 53.0139087,42.2235352 Z" id="路径" fill="#F6F6F6"></path>
                <path d="M39.2189868,59.3680664 C39.1642993,59.2791992 39.1301196,59.1766602 39.0754321,59.087793 C39.0412524,59.1561523 39.0070728,59.2313477 38.9660571,59.299707 C38.9660571,59.3202148 38.9455493,59.3202148 38.9455493,59.3338867 L38.9455493,59.3543945 C38.8361743,59.5458008 38.7541431,59.744043 38.6652759,59.955957 C38.5969165,60.0995117 38.5217212,60.2362305 38.4533618,60.3797852 C38.3098071,60.6805664 38.1730884,60.9813477 38.0090259,61.3026367 C37.6535571,62.0135742 37.4211353,62.5262695 37.1750415,62.9842773 C37.3322681,63.0047852 37.4963306,63.0047852 37.6535571,63.0047852 C37.8449634,62.5604492 38.0773853,62.1024414 38.3986743,61.5008789 C38.4670337,61.3573242 38.542229,61.2206055 38.5900806,61.0907227 C38.6584399,60.9676758 38.7336353,60.8446289 38.7883228,60.721582 C38.8088306,60.6668945 38.8225024,60.6327148 38.8430103,60.5985352 L38.8430103,60.5780273 C38.8635181,60.5438477 38.8771899,60.5233398 38.8771899,60.4891602 C38.9113696,60.4549805 38.9113696,60.4208008 38.9318774,60.3797852 C38.9660571,60.3456055 38.9660571,60.3114258 38.9865649,60.2704102 L39.0070728,60.2499023 C39.0412524,60.1610352 39.0754321,60.0926758 39.1301196,60.0038086 C39.1506274,59.9491211 39.1642993,59.9354492 39.198479,59.8807617 L39.198479,59.8260742 C39.2189868,59.8055664 39.2189868,59.7918945 39.2326587,59.7713867 L39.2326587,59.7508789 C39.2668384,59.6961914 39.2873462,59.6415039 39.3215259,59.5936523 L39.3215259,59.5731445 C39.2873462,59.5116211 39.2531665,59.4364258 39.2189868,59.3680664 Z M59.4260181,50.0643555 C57.3000415,50.8983398 55.1398853,51.4999023 52.8908618,51.8348633 C52.6789478,51.869043 52.4670337,51.9032227 52.2551196,51.9442383 C52.1457446,51.9442383 52.0637134,51.9647461 51.9543384,51.978418 C51.8996509,51.978418 51.8312915,51.9989258 51.776604,51.9989258 C51.7424243,51.9989258 51.7082446,52.0194336 51.667229,52.0194336 C51.4553149,52.0399414 51.2570728,52.0536133 51.0451587,52.0741211 C50.4230884,52.1424805 49.807854,52.1834961 49.1652759,52.2176758 C48.932854,52.2176758 48.7414478,52.415918 48.7414478,52.6415039 L48.7414478,61.3026367 C48.8850024,61.268457 49.0217212,61.2137695 49.1857837,61.159082 C53.0617603,59.7577148 56.589104,57.6180664 59.5832446,54.9041992 C59.7404712,54.7811523 59.8840259,54.6375977 60.0275806,54.494043 L60.0275806,50.4745117 C60.0275806,50.1737305 59.7131274,49.9618164 59.4260181,50.0643555 Z" id="形状" fill="#D6D6D6" fill-rule="nonzero"></path>
                <path d="M59.5832446,53.7147461 L59.5832446,54.9041992 C56.589104,57.6112305 53.0617603,59.7577148 49.1857837,61.159082 L49.1857837,55.8817383 C50.0539478,55.8475586 50.9426196,55.7723633 51.8244556,55.6698242 C51.9338306,55.6493164 52.0158618,55.6493164 52.104729,55.6356445 C52.7267993,55.5672852 53.3283618,55.4579102 53.9435962,55.3348633 C54.1555103,55.3006836 54.3879321,55.2665039 54.5998462,55.2118164 C54.9689868,55.143457 55.3586353,55.0545898 55.7482837,54.9452148 C56.1037524,54.8768555 56.4592212,54.7674805 56.807854,54.6649414 C57.2658618,54.5213867 57.7307056,54.384668 58.2092212,54.2206055 C58.3322681,54.1864258 58.4758228,54.1317383 58.6193774,54.0770508 C58.9475024,53.9608398 59.2687915,53.837793 59.5832446,53.7147461 Z" id="路径" fill="#F6F6F6"></path>
                <path d="M59.5900806,53.7147461 L59.5900806,50.4813477 C56.0012134,51.8827148 52.5559009,52.4979492 49.1926196,52.6415039 L49.1926196,55.8817383 C52.5559009,55.7313477 56.0012134,55.1161133 59.5900806,53.7147461 Z" id="路径" fill="#F6F6F6"></path>
                <path d="M49.1926196,56.3124023 C52.5559009,56.1483398 56.0080493,55.5262695 59.5900806,54.1522461 L59.5900806,53.7147461 C56.0012134,55.1161133 52.5559009,55.7313477 49.1926196,55.8749023 L49.1926196,56.3124023 Z" id="路径" fill="#D6D6D6"></path>
                <path d="M51.0588306,50.0438477 L51.0588306,52.5116211 C51.667229,52.4500977 52.2756274,52.3749023 52.8908618,52.2791992 L52.8908618,50.0438477 L51.0588306,50.0438477 Z" id="路径" fill="#4D4D4D"></path>
                <path d="M52.1389087,49.1893555 L51.8039478,49.1893555 C51.3937915,49.1893555 51.0588306,49.5243164 51.0588306,49.9276367 L51.0588306,50.0438477 L52.8908618,50.0438477 L52.8908618,49.9276367 C52.8840259,49.5243164 52.5559009,49.1893555 52.1389087,49.1893555 Z M51.9611743,55.7245117 C51.8586353,55.7245117 51.7697681,55.6424805 51.7629321,55.5331055 L51.6262134,50.5291992 C51.6262134,50.440332 51.6945728,50.3651367 51.7902759,50.3651367 L52.1252368,50.3651367 C52.214104,50.3651367 52.2892993,50.440332 52.2892993,50.5291992 L52.1525806,55.5331055 C52.1525806,55.6424805 52.0637134,55.7245117 51.9611743,55.7245117 Z" id="形状" fill="#B38C51" fill-rule="nonzero"></path>
                <path d="M51.7902759,50.4881836 C51.776604,50.4881836 51.7629321,50.4950195 51.7560962,50.5018555 C51.7492603,50.5086914 51.7424243,50.5155273 51.7424243,50.5360352 L51.8791431,55.5399414 C51.8791431,55.580957 51.9133228,55.6151367 51.9543384,55.6151367 L51.9543384,50.4950195 L51.7902759,50.4950195 L51.7902759,50.4881836 Z M51.9611743,49.3055664 L51.8039478,49.3055664 C51.5168384,49.3055664 51.2707446,49.5038086 51.1955493,49.7635742 C51.1750415,49.8456055 51.2365649,49.9276367 51.3254321,49.9276367 L51.9611743,49.9276367 L51.9611743,49.3055664 Z" id="形状" fill="#FCF6C6" fill-rule="nonzero"></path>
                <path d="M52.9318774,41.6219727 L53.0002368,42.8729492 C53.0070728,42.9823242 53.1027759,43.0575195 53.2121509,43.0438477 L53.964104,42.9208008 C54.073479,42.900293 54.1350024,42.7977539 54.1076587,42.6952148 L53.7795337,41.4852539 L52.9318774,41.6219727 Z" id="路径" fill="#4D4D4D"></path>
                <path d="M56.7463306,44.6776367 C56.4934009,43.1395508 55.0305103,42.1004883 53.4787524,42.353418 C51.9338306,42.6063477 50.8810962,44.0624023 51.1408618,45.5936523 C51.3937915,47.1317383 52.8566821,48.1708008 54.4084399,47.9178711 C55.9601978,47.6649414 57.0060962,46.2088867 56.7463306,44.6776367" id="路径" fill="#454545"></path>
                <path d="M56.3156665,44.7459961 C56.0969165,43.447168 54.8596118,42.565332 53.5539478,42.784082 C52.2414478,42.9959961 51.3596118,44.2264648 51.5783618,45.525293 C51.7971118,46.8241211 53.0344165,47.705957 54.3400806,47.487207 C55.6457446,47.268457 56.5344165,46.0448242 56.3156665,44.7459961" id="路径" fill="#E0E0E0"></path>
                <path d="M55.4543384,44.8895508 C55.3176196,44.0624023 54.5314868,43.5018555 53.6975024,43.6385742 C52.8635181,43.775293 52.3029712,44.5545898 52.4396899,45.3817383 C52.5764087,46.2088867 53.3625415,46.7694336 54.1965259,46.6327148 C55.0305103,46.4959961 55.5910571,45.7166992 55.4543384,44.8895508" id="路径" fill="#454545"></path>
                <path d="M55.1330493,44.9374023 C55.0236743,44.2879883 54.4084399,43.8504883 53.7521899,43.9530273 C53.0959399,44.0624023 52.651604,44.6776367 52.760979,45.3270508 C52.870354,45.9764648 53.4855884,46.4139648 54.1418384,46.3114258 C54.7980884,46.2020508 55.2424243,45.5936523 55.1330493,44.9374023" id="路径" fill="#B8B8B8"></path>
                <path d="M56.0490649,46.2977539 L55.3312915,45.7850586 C55.1262134,46.2157227 54.7160571,46.5506836 54.2033618,46.6327148 C53.6906665,46.7147461 53.1916431,46.5370117 52.8566821,46.1952148 L52.3439868,46.9061523 C52.8635181,47.377832 53.5949634,47.6170898 54.3469165,47.487207 C55.0920337,47.3641602 55.7004321,46.9061523 56.0490649,46.2977539" id="路径" fill="#F7F7F7"></path>
                <path d="M55.5568774,43.3651367 L55.0441821,44.0760742 C54.7092212,43.7342773 54.2101978,43.549707 53.6975024,43.6385742 C53.1848071,43.7206055 52.7746509,44.0487305 52.5695728,44.4862305 L51.8517993,43.9803711 C52.1935962,43.3651367 52.8088306,42.9071289 53.5607837,42.784082 C54.3059009,42.6610352 55.0305103,42.893457 55.5568774,43.3651367" id="路径" fill="#B3B3B3"></path>
                <path d="M53.6975024,43.6385742 C53.5471118,43.665918 53.4103931,43.7137695 53.2805103,43.7821289 L53.1096118,42.7567383 C53.0685962,42.5174805 53.2326587,42.2987305 53.4719165,42.2577148 C53.7111743,42.2166992 53.9367603,42.3807617 53.9777759,42.6131836 L54.1486743,43.6385742 C53.9982837,43.6180664 53.8478931,43.6112305 53.6975024,43.6385742" id="路径" fill="#F2F2F2"></path>
                <path d="M32.4309009,31.7782227 C32.1779712,32.1063477 32.0275806,32.5165039 31.9318774,32.947168 C31.4875415,33.165918 31.0432056,33.4188477 30.6057056,33.6991211 C28.8488696,34.8475586 27.2492603,36.549707 26.1965259,39.0584961 C25.9982837,39.5370117 25.8137134,40.0907227 25.6564868,40.6239258 C25.5197681,41.0819336 25.4035571,41.5125977 25.3010181,42.018457 L24.4396899,41.8475586 C24.5353931,41.3553711 24.6447681,40.8973633 24.7814868,40.4325195 C24.9387134,39.8856445 25.1369556,39.3387695 25.3420337,38.8329102 C26.073479,37.0624023 27.1125415,35.5516602 28.4387134,34.3143555 C28.9309009,33.8563477 29.4572681,33.4393555 30.0246509,33.056543 C30.776604,32.5575195 31.5764087,32.1268555 32.4309009,31.7782227 M53.7590259,41.8338867 L53.0959399,41.909082 C53.0685962,41.7655273 53.0480884,41.7313477 52.9318774,41.6219727 C52.8225024,41.1297852 52.6857837,40.6102539 52.5353931,40.165918 C51.4689868,36.9051758 49.5617603,34.8407227 47.4562915,33.5350586 C47.2170337,33.384668 46.9777759,33.2479492 46.7385181,33.1249023 C46.6564868,32.7079102 46.5402759,32.3045898 46.3351978,31.9696289 C47.0256274,32.284082 47.6750415,32.6463867 48.2834399,33.056543 C48.8029712,33.4051758 49.2883228,33.7811523 49.7394946,34.1913086 C51.4279712,35.7157227 52.6584399,37.6708008 53.4103931,40.0155273 C53.5607837,40.4803711 53.6701587,40.9930664 53.7795337,41.4852539 C53.7180103,41.6151367 53.7316821,41.7108398 53.7590259,41.8338867" id="形状" fill="#4D4D4D" fill-rule="nonzero"></path>
                <path d="M25.0480884,42.2577148 L25.0480884,42.3124023 C25.0480884,42.3670898 25.0275806,42.4217773 24.9934009,42.455957 C24.9592212,42.5243164 24.8840259,42.565332 24.8019946,42.5790039 L24.7336353,42.5790039 C23.0656665,42.455957 20.6252368,44.5272461 19.4904712,45.962793 C18.3762134,47.377832 17.3098071,49.7157227 16.5305103,52.3407227 C16.3869556,52.8397461 16.2639087,53.3182617 16.1750415,53.7420898 L16.0178149,53.5848633 C15.9631274,53.5301758 15.9084399,53.4754883 15.8605884,53.4071289 C15.8059009,53.3524414 15.7375415,53.2977539 15.7033618,53.2293945 C15.7717212,52.8944336 15.8605884,52.5594727 15.9699634,52.1834961 C16.7492603,49.4901367 17.8635181,47.0838867 19.0324634,45.6141602 C20.2697681,44.0213867 22.8742603,41.8407227 24.7883228,41.9979492 L24.8225024,41.9979492 C24.8566821,41.9979492 24.8771899,42.018457 24.9113696,42.0321289 C24.9728931,42.0799805 25.0480884,42.1483398 25.0480884,42.2577148 Z" id="路径" fill="#B3B3B3"></path>
                <path d="M24.8498462,42.2713867 L24.8498462,42.2918945 C24.8498462,42.3124023 24.8498462,42.3260742 24.8293384,42.3260742 C24.8293384,42.346582 24.8293384,42.346582 24.8088306,42.3602539 C24.8088306,42.3602539 24.7746509,42.3807617 24.7404712,42.3807617 L24.6379321,42.3807617 C22.8810962,42.3260742 20.495354,44.3495117 19.3264087,45.8329102 C18.2121509,47.2821289 17.1115649,49.6200195 16.3527759,52.2791992 C16.2092212,52.737207 16.1066821,53.1678711 16.0178149,53.5711914 C15.9631274,53.5165039 15.9084399,53.4618164 15.8605884,53.393457 C15.9289478,53.0243164 16.0383228,52.634668 16.1613696,52.2245117 C16.9406665,49.5516602 18.0412524,47.1795898 19.1896899,45.7030273 C20.3791431,44.1786133 22.8400806,42.1073242 24.6789478,42.1756836 L24.7883228,42.1756836 C24.8156665,42.2030273 24.8361743,42.237207 24.8498462,42.2713867 Z" id="路径" fill="#D4D4D4"></path>
                <path d="M29.245354,54.7811523 C28.9240649,57.7069336 28.1857837,59.3885742 26.9963306,59.9354492 C26.4494556,60.2020508 25.8957446,60.2020508 25.2805103,60.1131836 C25.0685962,60.0243164 24.8361743,59.9217773 24.6242603,59.8124023 C24.6242603,59.8124023 24.6037524,59.8124023 24.5900806,59.7918945 C24.4670337,59.737207 24.3781665,59.6825195 24.2551196,59.6141602 C24.2209399,59.5936523 24.1867603,59.5799805 24.1662524,59.5594727 C24.1320728,59.5389648 24.0978931,59.525293 24.0568774,59.5047852 C24.0363696,59.5047852 24.0363696,59.4842773 24.0226978,59.4842773 C23.8312915,59.415918 23.667229,59.306543 23.4894946,59.2040039 L23.5441821,59.2040039 C23.776604,59.2381836 24.0021899,59.2928711 24.214104,59.3270508 C24.2346118,59.3270508 24.2482837,59.3270508 24.2687915,59.3475586 L24.2892993,59.3475586 C25.3146899,59.5389648 26.0598071,59.7030273 26.7365649,59.4022461 C27.7277759,58.9442383 28.3635181,57.3651367 28.6642993,54.7264648 C28.9650806,51.9989258 28.8557056,49.4491211 28.3840259,47.712793 C28.3293384,47.5213867 28.260979,47.3026367 28.1721118,47.0770508 L28.1721118,47.056543 C27.6730884,45.6551758 26.7023853,43.884668 25.6223071,43.0370117 L25.6017993,43.0165039 C25.3557056,42.8182617 25.1027759,42.681543 24.8430103,42.5926758 C24.8225024,42.5926758 24.8088306,42.572168 24.8088306,42.572168 C24.7199634,42.5379883 24.6652759,42.462793 24.651604,42.3739258 C24.6310962,42.3192383 24.6310962,42.2645508 24.651604,42.2166992 C24.651604,42.1961914 24.6857837,42.1825195 24.6857837,42.1825195 C24.7404712,42.0731445 24.8293384,42.025293 24.9182056,42.025293 L25.0207446,42.025293 C25.089104,42.0458008 25.1642993,42.0799805 25.2121509,42.1141602 C25.4103931,42.1825195 25.5812915,42.2918945 25.7590259,42.4149414 C27.2082446,43.4061523 28.4182056,45.7303711 28.9103931,47.3709961 L28.9103931,47.3915039 C28.9309009,47.4461914 28.9445728,47.5008789 28.9650806,47.5487305 C29.0539478,47.8700195 29.1223071,48.2049805 29.1769946,48.5741211 C29.4777759,50.2967773 29.5119556,52.4911133 29.245354,54.7811523 Z" id="路径" fill="#B3B3B3"></path>
                <path d="M29.0471118,54.7606445 C28.7258228,57.5975586 28.0353931,59.2245117 26.9006274,59.7577148 C26.1896899,60.0790039 25.4855884,59.9696289 24.6174243,59.8124023 C24.6174243,59.8124023 24.5969165,59.8124023 24.5832446,59.7918945 C24.4601978,59.737207 24.3713306,59.6825195 24.2482837,59.6141602 C24.214104,59.5936523 24.1799243,59.5799805 24.1594165,59.5594727 C24.1252368,59.5389648 24.0910571,59.525293 24.0500415,59.5047852 C24.0842212,59.5047852 24.1184009,59.5047852 24.1594165,59.525293 C24.1935962,59.525293 24.2277759,59.5458008 24.2687915,59.5458008 C24.3029712,59.5458008 24.323479,59.5663086 24.3576587,59.5663086 C25.3488696,59.7577148 26.1144946,59.9217773 26.8185962,59.5868164 C27.8644946,59.087793 28.5549243,57.4813477 28.8557056,54.7538086 C29.1564868,52.0262695 29.0676196,49.455957 28.5754321,47.705957 L28.5754321,47.6717773 C28.3976978,47.0702148 28.1310962,46.3456055 27.7619556,45.634668 L27.7414478,45.6141602 C27.7209399,45.5936523 27.7209399,45.5594727 27.7072681,45.5458008 C27.385979,44.8348633 26.9826587,44.1786133 26.5041431,43.6317383 L26.4836353,43.6112305 C26.1281665,43.1874023 25.7726978,42.8661133 25.3693774,42.6336914 C25.2463306,42.565332 25.1232837,42.5106445 25.0002368,42.455957 C24.9660571,42.4354492 24.9318774,42.4354492 24.8908618,42.4217773 C24.8566821,42.4012695 24.8566821,42.3875977 24.8361743,42.3670898 L24.8361743,42.3329102 L24.8361743,42.2987305 C24.8361743,42.2987305 24.8361743,42.2782227 24.8566821,42.2987305 L24.8566821,42.2782227 C24.8771899,42.244043 24.9113696,42.2235352 24.9455493,42.2235352 L24.9660571,42.2235352 C25.0002368,42.244043 25.0207446,42.244043 25.0549243,42.2577148 C25.1096118,42.2782227 25.1779712,42.2918945 25.2326587,42.346582 C25.5129321,42.455957 25.7795337,42.6473633 26.0461353,42.8797852 C27.0920337,43.7821289 27.9601978,45.3612305 28.4728931,46.721582 C28.5959399,47.0428711 28.7053149,47.3231445 28.7736743,47.6102539 C28.8283618,47.7879883 28.8625415,47.9657227 28.8967212,48.1571289 C29.2658618,49.9071289 29.3137134,52.2655273 29.0471118,54.7606445 Z" id="路径" fill="#D4D4D4"></path>
                <path d="M24.2824634,59.3475586 L24.2824634,59.4706055 L24.2619556,59.5389648 L24.2414478,59.6073242 C24.2072681,59.5868164 24.1730884,59.5731445 24.1525806,59.5526367 C24.1184009,59.5321289 24.0842212,59.518457 24.0432056,59.4979492 C24.0226978,59.4979492 24.0226978,59.4774414 24.0090259,59.4774414 C23.8176196,59.409082 23.6535571,59.299707 23.4758228,59.197168 C23.0656665,58.9852539 22.6623462,58.752832 22.2726978,58.5272461 C22.2180103,58.4930664 22.1633228,58.4588867 22.1154712,58.4383789 C22.1496509,58.3495117 22.2590259,58.3290039 22.3478931,58.3700195 L24.0158618,58.9920898 C24.0842212,59.0262695 24.1252368,59.0604492 24.1730884,59.1014648 C24.1935962,59.1219727 24.1935962,59.1356445 24.2072681,59.1561523 C24.2072681,59.1561523 24.2277759,59.1766602 24.2277759,59.190332 L24.2277759,59.2245117 L24.2482837,59.2245117 L24.2482837,59.2450195 L24.2687915,59.2655273 L24.2687915,59.3543945 L24.2824634,59.3543945 L24.2824634,59.3475586 Z" id="路径" fill="#4D4D4D"></path>
                <path d="M24.2887362,59.3475586 L24.2887362,59.3133789 C24.2887362,59.2928711 24.2887362,59.2586914 24.2647087,59.2450195 L24.2647087,59.2245117 L24.2406813,59.2245117 C24.2406813,59.2450195 24.2406813,59.2791992 24.2166538,59.3133789 L24.2166538,59.3338867 L24.1525806,59.525293 L24.1525806,59.5594727 C24.176608,59.5799805 24.2166538,59.5936523 24.2566996,59.6141602 L24.280727,59.5458008 L24.3047545,59.4774414 L24.3047545,59.409082 C24.3047545,59.3817383 24.3047545,59.3680664 24.2887362,59.3475586 Z" id="路径" fill="#404040"></path>
                <path d="M24.2346118,59.2245117 C24.280264,59.2245117 24.280264,59.2701639 24.280264,59.2701639 L24.280264,59.2245117 L24.2346118,59.2245117 Z M24.214104,59.1561523 C24.1935962,59.1356445 24.1935962,59.1219727 24.1799243,59.1014648 C24.1252368,59.0672852 24.0910571,59.0331055 24.0226978,58.9920898 L22.354729,58.3700195 C22.2658618,58.3358398 22.1633228,58.3495117 22.1223071,58.4383789 C22.1769946,58.4588867 22.2316821,58.4930664 22.2795337,58.5272461 C22.3137134,58.4930664 22.3889087,58.4930664 22.4367603,58.5067383 L24.104729,59.1288086 C24.1594165,59.1493164 24.1935962,59.1834961 24.2277759,59.2176758 L24.2277759,59.1834961 C24.2346118,59.1698242 24.214104,59.1561523 24.214104,59.1561523 Z" id="形状" fill="#737373" fill-rule="nonzero"></path>
                <path d="M28.7805103,48.0545898 C28.5412524,48.1161133 28.2951587,47.9793945 28.2336353,47.7401367 C27.8439868,46.3319336 27.1398853,44.9032227 26.182854,43.7889648 C25.7248462,43.2557617 25.1711353,42.6541992 24.3986743,42.7225586 C23.7492603,42.7772461 23.1271899,43.0848633 22.573479,43.4129883 C21.4455493,44.0897461 20.4133228,45.0057617 19.6066821,46.0379883 C19.4562915,46.2293945 19.1760181,46.2704102 18.9777759,46.1200195 C18.7795337,45.9696289 18.745354,45.6893555 18.8957446,45.4979492 C19.6476978,44.5272461 20.5842212,43.6795898 21.6027759,42.9823242 C22.135979,42.6200195 22.7307056,42.3739258 23.2570728,42.0047852 C23.7082446,41.690332 24.1457446,41.3143555 24.4943774,40.8836914 C24.6105884,40.7401367 24.7199634,40.5897461 24.7814868,40.4188477 L24.9865649,41.2254883 L24.9865649,41.5536133 L25.1096118,41.252832 L25.6564868,40.6102539 C25.5812915,40.9657227 25.8205493,41.4442383 25.9572681,41.7655273 C26.0871509,42.0663086 26.2307056,42.353418 26.4084399,42.6268555 C26.5793384,42.893457 26.7980884,43.1258789 26.9963306,43.3719727 C27.4064868,43.8709961 27.7551196,44.4178711 28.0627368,44.9852539 C28.4934009,45.7782227 28.8557056,46.6258789 29.0949634,47.494043 C29.1633228,47.7469727 29.0197681,47.9930664 28.7805103,48.0545898" id="路径" fill="#4D4D4D"></path>
                <polygon id="路径" fill="#F8B64C" points="28.452522 47.0927734 6.35193604 51.5429688 0.698615723 23.6318359 22.7992017 19.1816406"></polygon>
                <polygon id="路径" fill="#FFFFFF" points="26.9896313 45.8554688 7.21326416 49.8408203 2.15467041 24.8691406 21.9310376 20.8837891"></polygon>
                <path d="M7.78064697,33.9199219 L6.30408447,34.2138672 L6.01013916,32.7441406 L7.47986572,32.4501953 L7.78064697,33.9199219 Z M21.4867017,31.1582031 L9.25037354,33.6191406 L8.95642822,32.1494141 L21.1859204,29.6884766 L21.4867017,31.1582031 Z M8.34119385,36.7089844 L6.87146729,37.0029297 L6.57068604,35.5332031 L8.04724854,35.2392578 L8.34119385,36.7089844 Z M20.5091626,34.2617188 L9.81775635,36.4082031 L9.5169751,34.9453125 L20.2083813,32.7919922 L20.5091626,34.2617188 Z M8.90857666,39.4980469 L7.4388501,39.7919922 L7.13806885,38.3222656 L8.61463135,38.0283203 L8.90857666,39.4980469 Z M20.0579907,37.2558594 L10.3783032,39.2041016 L10.0843579,37.734375 L19.7572095,35.7861328 L20.0579907,37.2558594 Z M9.47595947,42.2871094 L7.99939697,42.5810547 L7.70545166,41.1181641 L9.17517822,40.8173828 L9.47595947,42.2871094 Z M23.4896313,39.4638672 L10.945686,41.9931641 L10.6449048,40.5234375 L23.195686,38.0009766 L23.4896313,39.4638672 Z M10.0365063,45.0761719 L8.56677979,45.3769531 L8.26599854,43.9072266 L9.74256104,43.6064453 L10.0365063,45.0761719 Z M24.0570142,42.2529297 L11.5062329,44.7822266 L11.2122876,43.3125 L23.7562329,40.7900391 L24.0570142,42.2529297 Z" id="形状" fill="#053767" fill-rule="nonzero"></path>
                <path d="M1.4779126,36.5996094 C1.5326001,36.5996094 1.5872876,36.5927734 1.6419751,36.5859375 L4.8685376,36.1279297 C5.50427979,36.0390625 5.94861572,35.4511719 5.8529126,34.8154297 C5.76404541,34.1796875 5.17615479,33.7421875 4.5404126,33.8310547 L1.3138501,34.2890625 C0.67810791,34.3779297 0.233771973,34.9658203 0.329475098,35.6015625 C0.411506348,36.1826172 0.903693848,36.5996094 1.4779126,36.5996094 Z M1.30701416,39.1152344 L4.46521729,38.71875 C5.10095947,38.6367188 5.55213135,38.0625 5.47693604,37.4267578 C5.39490479,36.7910156 4.82068604,36.3398438 4.17810791,36.421875 L1.01990479,36.8115234 C0.384162598,36.8935547 -0.0670092773,37.4746094 0.00818603516,38.1035156 C0.0833813477,38.6914062 0.582404785,39.1220703 1.16345947,39.1220703 C1.21131104,39.1220703 1.2591626,39.1220703 1.30701416,39.1152344 Z M5.1419751,41.0087891 C5.77771729,40.8925781 6.18787354,40.2841797 6.0716626,39.6552734 C5.95545166,39.0263672 5.34705322,38.609375 4.71814697,38.7324219 L1.55994385,39.3271484 C0.92420166,39.4433594 0.51404541,40.0517578 0.630256348,40.6806641 C0.73279541,41.234375 1.22498291,41.6240234 1.77185791,41.6240234 C1.84021729,41.6240234 1.9154126,41.6171875 1.98377197,41.6035156 L5.1419751,41.0087891 Z M6.66638916,41.9316406 C6.57068604,41.3642578 6.03748291,40.9814453 5.4701001,41.0771484 L2.64002197,41.5488281 C2.07263916,41.6445312 1.68982666,42.1777344 1.78552979,42.7451172 C1.86756104,43.2509766 2.31189697,43.6132812 2.81092041,43.6132812 C2.86560791,43.6132812 2.92713135,43.6064453 2.98181885,43.5996094 L5.81189697,43.1279297 C6.37927979,43.0322266 6.76209229,42.4990234 6.66638916,41.9316406 Z" id="形状" fill="#E2B899" fill-rule="nonzero"></path>
                <path d="M14.6917798,27.4394531 L13.4749829,27.6650391 L13.7005688,28.875 L12.6409985,29.0732422 L12.4154126,27.8632812 L11.1986157,28.0888672 L11.0003735,27.0361328 L12.2171704,26.8105469 L11.9915845,25.6005859 L13.0511548,25.4023438 L13.2767407,26.6123047 L14.4935376,26.3867188 L14.6917798,27.4394531 Z M12.3538892,24.6162109 C10.9046704,24.8896484 9.94763916,26.2773438 10.2210767,27.7265625 C10.4945142,29.1757813 11.8890454,30.1259766 13.3382642,29.8525391 C14.7874829,29.5791016 15.7445142,28.1914063 15.4710767,26.7421875 C15.2044751,25.2998047 13.8031079,24.3496094 12.3538892,24.6162109 Z" id="形状" fill="#F85A40" fill-rule="nonzero"></path>
                <path d="M15.655647,19.8583984 L11.6292798,20.7949219 L7.55506104,21.4921875 C7.55506104,21.4921875 8.01990479,22.7773438 7.6029126,24.1445312 L11.9642407,23.2626953 L12.2786938,23.2011719 L16.7152173,22.3056641 C15.7992017,21.2050781 15.655647,19.8583984 15.655647,19.8583984" id="路径" fill="#305056"></path>
                <path d="M16.7630688,22.203125 C16.8177563,22.4628906 16.6468579,22.7158203 16.3870923,22.7705078 L8.01306885,24.4589844 C7.75330322,24.5136719 7.4935376,24.3427734 7.44568604,24.0830078 C7.39099854,23.8232422 7.56189697,23.5703125 7.8216626,23.515625 L16.202522,21.8271484 C16.4554517,21.7792969 16.7083813,21.9433594 16.7630688,22.203125 M15.8197095,19.8720703 C15.867561,20.1113281 15.7171704,20.3369141 15.4779126,20.3847656 L7.91052979,21.9091797 C7.67810791,21.9570312 7.44568604,21.8066406 7.39783447,21.5673828 C7.34998291,21.328125 7.50037354,21.1025391 7.73963135,21.0546875 L15.3070142,19.5302734 C15.546272,19.4824219 15.7718579,19.6328125 15.8197095,19.8720703" id="形状" fill="#2C4955" fill-rule="nonzero"></path>
                <path d="M11.4857251,20.2617188 C10.9593579,20.3642578 10.4534985,20.0292969 10.3509595,19.5097656 C10.2484204,18.9902344 10.5833813,18.484375 11.1097485,18.375 C11.6292798,18.2724609 12.1419751,18.6074219 12.2445142,19.1269531 C12.3470532,19.6533203 12.0120923,20.1591797 11.4857251,20.2617188 Z M13.8919751,19.6191406 C13.6185376,18.2792969 12.3060376,17.4111328 10.9661938,17.6777344 C9.61951416,17.9511719 8.7513501,19.2568359 9.01795166,20.5966797 L9.16150635,21.3144531 L14.0355298,20.3369141 L13.8919751,19.6191406 Z" id="形状" fill="#2C4955" fill-rule="nonzero"></path>
            </g>
        </g>
    </g>
</svg>