<?xml version="1.0" encoding="UTF-8"?>
<svg width="36px" height="36px" viewBox="0 0 36 36" version="1.1" xmlns="http://www.w3.org/2000/svg" xmlns:xlink="http://www.w3.org/1999/xlink">
    <!-- Generator: Sketch 52 (66869) - http://www.bohemiancoding.com/sketch -->
    <title>zixun-2</title>
    <desc>Created with Sketch.</desc>
    <g id="AD患者之家5.0" stroke="none" stroke-width="1" fill="none" fill-rule="evenodd">
        <g id="我的兑换" transform="translate(-16.000000, -149.000000)">
            <g id="zixun-2" transform="translate(16.000000, 149.000000)">
                <path d="M0,18 C1.21743675e-15,27.9411255 8.0588745,36 18,36 C27.9411255,36 36,27.9411255 36,18 C36,8.0588745 27.9411255,6.08718376e-16 18,0 C8.0588745,-6.08718376e-16 1.21743675e-15,8.0588745 0,18 Z" id="路径" fill="#3ECDB5"></path>
                <path d="M12.8108571,17.3571429 C11.9751428,17.3571429 11.2962857,16.4532857 11.2962857,15.3372857 C11.2962857,14.3241428 11.8555714,13.4845714 12.5845714,13.338 C13.2724286,11.5611429 15.1482857,10.2857143 17.3571429,10.2857143 C19.566,10.2857143 21.4431429,11.5611429 22.1297143,13.338 C22.8587143,13.4845714 23.418,14.3241429 23.418,15.3372857 C23.418,16.4532857 22.7391429,17.3571428 21.9034286,17.3571429 L21.3981429,17.3571429 L21.3981429,14.832 C21.3981429,12.9034286 19.611,11.2962857 17.3571429,11.2962857 C15.1032857,11.2962857 13.3161429,12.9034286 13.3161429,14.832 L13.3161429,17.3571429 L12.8108571,17.3571429 Z M10.314,25.4391429 C10.2941334,25.2714611 10.2846867,25.1027085 10.2857143,24.9338571 C10.2857143,22.7108571 11.682,20.7681428 13.7622857,19.7138571 C14.8037143,20.4814286 16.0637143,20.8954286 17.3571429,20.8928571 C18.6509806,20.8950266 19.9112509,20.4812469 20.952,19.7125714 C23.0322857,20.7668571 24.4285714,22.7108571 24.4285714,24.9325714 C24.4285714,25.119 24.4182857,25.2874286 24.4002857,25.4391429 L10.314,25.4391429 Z M17.3571429,19.3757143 C16.0939538,19.3757143 14.9267189,18.701811 14.2951244,17.6078572 C13.6635299,16.5139033 13.6635299,15.1660967 14.2951244,14.0721428 C14.9267189,12.978189 16.0939538,12.3042857 17.3571429,12.3042857 C18.6203319,12.3042857 19.7875668,12.978189 20.4191613,14.0721428 C21.0507559,15.1660967 21.0507559,16.5139033 20.4191613,17.6078572 C19.7875668,18.701811 18.6203319,19.3757143 17.3571429,19.3757143 Z" id="形状" fill="#FFFFFF" fill-rule="nonzero"></path>
            </g>
        </g>
    </g>
</svg>