<?xml version="1.0" encoding="UTF-8"?>
<svg width="15px" height="18px" viewBox="0 0 15 18" version="1.1" xmlns="http://www.w3.org/2000/svg" xmlns:xlink="http://www.w3.org/1999/xlink">
    <!-- Generator: Sketch 52 (66869) - http://www.bohemiancoding.com/sketch -->
    <title>zu-2</title>
    <desc>Created with Sketch.</desc>
    <g id="AD患者之家5.0" stroke="none" stroke-width="1" fill="none" fill-rule="evenodd">
        <g id="附近医院-医院详情" transform="translate(-16.000000, -154.000000)">
            <g id="分组-7" transform="translate(16.000000, 152.000000)">
                <g id="分组-6">
                    <g id="分组-8">
                        <g id="zu-2" transform="translate(0.000000, 2.000000)">
                            <path d="M0,7.39979968 C0.000201662019,3.86523391 3.13414935,1 7,1 C10.8658507,1 13.9997983,3.86523391 14,7.39979968 C14,12.159579 8.3503,17 6.99999999,17 C5.64969998,17 -1.90482956e-08,12.159579 0,7.39979968 Z" id="路径" fill="#F2A900"></path>
                            <path d="M7.49999999,18 C6.05318182,18 2.26261519e-10,12.5151799 0,7.12230216 C1.28615412e-15,3.18876329 3.35786438,9.16037829e-16 7.5,0 C11.6421356,-9.16037829e-16 15,3.18876329 15,7.12230216 C15,12.5151799 8.94681818,18 7.49999999,18 Z M7.49999999,1.16546763 C4.11097994,1.16546763 1.36363636,3.77445577 1.36363636,6.99280575 C1.36363636,11.0609353 5.90113636,16.057554 7.49999999,16.057554 C9.01431817,16.057554 13.6363636,11.1010791 13.6363636,6.99280575 C13.6363636,5.44729959 12.9898558,3.96509333 11.8390643,2.87225544 C10.6882729,1.77941755 9.12746482,1.16546762 7.49999999,1.16546763 Z" id="形状" fill="#F2A900" fill-rule="nonzero"></path>
                            <path d="M8,9 C6.8954305,9 6,8.1045695 6,7 C6,5.8954305 6.8954305,5 8,5 C9.1045695,5 10,5.8954305 10,7 C10,7.53043298 9.78928632,8.03914081 9.41421356,8.41421356 C9.03914081,8.78928632 8.53043298,9 8,9 Z" id="路径" fill="#FFFFFF" fill-rule="nonzero"></path>
                        </g>
                    </g>
                </g>
            </g>
        </g>
    </g>
</svg>