<?xml version="1.0" encoding="UTF-8"?>
<svg width="16px" height="16px" viewBox="0 0 16 16" version="1.1" xmlns="http://www.w3.org/2000/svg" xmlns:xlink="http://www.w3.org/1999/xlink">
    <!-- Generator: Sketch 52 (66869) - http://www.bohemiancoding.com/sketch -->
    <title>gouxuan-hui</title>
    <desc>Created with Sketch.</desc>
    <g id="AD患者之家4.0" stroke="none" stroke-width="1" fill="none" fill-rule="evenodd">
        <g id="注册-填写信息-用户隐私条款" transform="translate(-28.000000, -503.000000)">
            <g id="分组-7" transform="translate(28.000000, 501.000000)">
                <g id="gouxuan-hui" transform="translate(0.000000, 2.000000)">
                    <path d="M8.00401543,0.0123845842 C3.59447391,0.0123845842 0.00829076142,3.59493063 0.00829076142,8 C0.00829076142,12.4050694 3.59447391,15.9876154 8.00401543,15.9876154 C12.413557,15.9876154 15.9997401,12.4050694 15.9997401,8 C15.9997401,3.59493063 12.413557,0.0123845842 8.00401543,0.0123845842 Z" id="路径" fill="#D8D8D8"></path>
                    <path d="M11.8646514,6.68396268 L7.27214132,11.3175108 L7.26299289,11.3175108 C7.22639919,11.3540673 7.18065706,11.3723456 7.13491492,11.3997631 C7.11661807,11.4089022 7.09832122,11.4271805 7.07087594,11.4363197 C6.99768853,11.4637371 6.93364954,11.4820154 6.86046213,11.4820154 C6.78727472,11.4820154 6.71408731,11.4637371 6.6408999,11.4363197 C6.61345462,11.4271805 6.59515777,11.4089022 6.57686091,11.3906239 C6.53111878,11.3632065 6.49452508,11.3449282 6.45793137,11.3083716 L6.45793137,11.2992325 L6.44878294,11.2992325 L4.19827005,8.99616714 C3.97673904,8.76872136 3.98082771,8.40519877 4.20741848,8.18278296 C4.43509516,7.96147662 4.79898682,7.96556115 5.02162843,8.19192211 L6.86961056,10.1020041 L11.0504414,5.87971765 C11.2700037,5.65123895 11.6359407,5.65123895 11.8646514,5.87971765 C12.0842384,6.10292429 12.0842384,6.46075603 11.8646514,6.68396268 Z" id="路径" fill="#FFFFFF"></path>
                </g>
            </g>
        </g>
    </g>
</svg>